<?xml version="1.0" standalone="no"?>
<!DOCTYPE svg PUBLIC "-//W3C//DTD SVG 20010904//EN"
 "http://www.w3.org/TR/2001/REC-SVG-20010904/DTD/svg10.dtd">
<svg version="1.0" xmlns="http://www.w3.org/2000/svg"
 width="360.000000pt" height="362.000000pt" viewBox="0 0 360.000000 362.000000"
 preserveAspectRatio="xMidYMid meet">
<metadata>
Created by potrace 1.16, written by Peter Selinger 2001-2019
</metadata>
<g transform="translate(0.000000,362.000000) scale(0.100000,-0.100000)"
fill="#000000" stroke="none">
<path d="M3541 3615 c-2 -5 -4 -21 -4 -35 l-2 -25 -1244 -3 -1244 -2 -18 21
c-11 12 -19 26 -19 31 0 4 -5 8 -12 8 -9 0 -9 -3 0 -12 7 -7 12 -20 12 -30 0
-24 -46 -24 -74 0 -20 16 -20 16 -7 0 13 -17 -9 -18 -433 -18 l-446 0 0 -1775
c0 -1300 3 -1775 11 -1775 7 0 9 10 7 25 -3 14 -1 28 4 31 5 3 62 5 126 4 136
-3 109 -3 289 0 124 1 143 4 158 20 17 18 45 17 45 -2 0 -5 -4 -6 -10 -3 -5 3
-10 1 -10 -4 0 -14 26 -14 52 0 15 8 19 8 14 0 -5 -8 39 -11 151 -12 87 -1
161 -1 165 0 4 0 172 1 373 1 286 1 365 3 357 13 -5 7 -8 22 -7 34 1 12 -2 20
-7 17 -4 -3 -8 4 -8 16 0 12 -6 33 -14 49 -17 32 -14 67 4 63 8 -2 10 3 6 14
-4 10 -1 21 6 26 9 5 6 8 -9 8 -25 0 -27 7 -14 63 8 31 6 37 -8 38 -10 0 -11
2 -3 6 17 7 15 32 -3 40 -14 5 -14 8 -1 27 14 22 11 80 -3 71 -4 -2 -8 2 -8
10 0 8 4 15 9 15 4 0 11 0 16 0 4 0 7 -5 7 -12 0 -13 33 -20 40 -8 3 5 1 20
-5 35 -5 14 -6 24 -1 21 5 -4 12 0 15 6 3 7 3 3 0 -9 -7 -30 4 -29 16 1 13 35
71 43 142 20 14 -4 18 -2 14 5 -4 6 -2 9 6 6 7 -2 29 -6 48 -8 48 -5 100 -34
99 -55 0 -10 -3 -12 -6 -4 -2 6 -10 9 -15 6 -7 -4 -8 -2 -4 4 5 8 -2 12 -19
12 -17 0 -24 -4 -19 -12 4 -6 3 -8 -2 -5 -5 3 -32 1 -59 -5 -28 -6 -43 -13
-35 -16 8 -3 26 -13 39 -23 l24 -19 -29 -13 c-26 -11 -46 -39 -27 -36 25 4 52
-3 56 -15 4 -11 -1 -11 -35 1 -35 12 -43 12 -64 -2 -28 -18 -29 -22 -9 -22 8
0 15 3 15 6 0 5 46 6 69 2 3 -1 -4 -7 -15 -15 -15 -12 -17 -19 -8 -32 6 -10
17 -20 25 -22 9 -2 10 -1 3 5 -12 9 -26 43 -18 43 3 0 15 -5 26 -11 11 -6 18
-7 15 -2 -7 12 33 57 53 60 8 1 35 7 60 12 29 6 50 6 60 -1 12 -8 11 -8 -3 -4
-25 8 -44 -4 -26 -15 11 -7 10 -9 -3 -9 -10 0 -18 5 -18 10 0 13 -27 13 -32 0
-2 -6 -15 -12 -29 -14 -32 -3 -51 -15 -46 -29 4 -13 8 -14 59 -16 43 -1 28
-13 -21 -16 -41 -2 -74 -24 -63 -41 4 -5 14 -8 22 -8 8 1 20 2 27 3 7 0 10 7
7 15 -4 11 0 13 15 9 12 -3 24 -10 28 -16 3 -6 1 -7 -5 -3 -7 4 -12 2 -12 -3
0 -6 7 -11 15 -11 18 0 20 27 3 33 -7 2 -10 7 -6 11 3 4 19 1 35 -8 21 -12 24
-15 9 -16 -15 0 -16 -3 -6 -15 11 -13 7 -14 -31 -11 -32 3 -46 0 -55 -12 -12
-16 -15 -16 -41 -1 -18 10 -37 13 -53 8 -23 -6 -22 -7 10 -8 36 -2 88 -30 59
-32 -8 -1 -19 -1 -26 0 -6 1 -14 -3 -18 -9 -8 -13 30 -13 54 -1 21 12 37 3 42
-23 2 -11 11 -22 19 -24 12 -4 13 -2 3 9 -10 13 -6 14 25 11 39 -4 36 11 -3
21 -11 3 7 4 39 2 34 -2 63 -9 67 -17 6 -8 9 -9 9 -2 0 7 12 14 27 17 l27 5
-24 -18 c-17 -13 -19 -19 -9 -22 8 -3 0 -7 -17 -10 -22 -3 -31 -1 -27 8 2 6
-3 14 -13 18 -13 5 -15 2 -11 -13 3 -14 1 -18 -9 -14 -8 3 -11 10 -7 17 4 6
-1 5 -10 -3 -18 -14 -14 -31 7 -31 7 0 13 -7 13 -15 0 -8 -4 -12 -8 -9 -4 2
-10 0 -13 -5 -4 -5 -2 -12 3 -16 6 -3 8 -12 4 -20 -3 -9 1 -15 8 -15 12 0 12
-2 0 -9 -8 -5 -9 -11 -3 -15 6 -3 17 1 25 9 9 9 17 11 19 5 2 -7 10 -6 22 3
15 11 17 17 7 35 -6 12 -21 22 -31 22 -11 0 -20 4 -20 9 0 5 8 7 18 4 10 -2
24 3 31 11 15 18 31 21 31 5 0 -5 -4 -7 -10 -4 -5 3 -10 2 -10 -3 0 -6 11 -9
24 -8 17 1 21 4 15 13 -7 7 -6 14 1 18 5 3 10 1 10 -4 0 -6 8 -11 17 -11 14 0
12 -4 -7 -17 -14 -10 -31 -18 -38 -20 -8 -1 -17 -5 -20 -9 -4 -4 1 -4 11 -1 9
4 17 2 17 -3 0 -5 9 -7 20 -5 29 6 16 -10 -20 -25 -16 -7 -28 -16 -25 -20 8
-12 -24 -21 -51 -14 -15 4 -24 2 -24 -6 0 -7 19 -10 60 -8 38 2 56 6 50 12
-16 16 -11 30 5 16 9 -7 19 -9 23 -5 4 4 1 10 -6 12 -16 6 -5 23 14 23 8 0 13
-4 10 -9 -3 -5 1 -12 10 -15 8 -3 12 -2 9 4 -7 11 44 34 53 25 3 -3 0 -5 -6
-5 -6 0 -9 -6 -6 -14 5 -14 -27 -29 -56 -27 -11 1 -10 -1 3 -9 20 -12 1104
-16 1151 -4 l26 6 0 117 c0 74 -4 111 -9 101 -6 -8 -7 -18 -4 -24 4 -5 -1 -7
-11 -3 -10 4 -24 7 -33 7 -25 0 -11 43 16 50 36 8 48 33 34 70 -6 16 -7 30 -2
30 5 0 9 4 9 9 0 5 -8 8 -17 6 -10 -2 -22 -4 -27 -4 -6 -1 -2 -7 9 -14 26 -20
10 -38 -31 -34 -19 3 -37 1 -39 -3 -3 -4 -16 -10 -30 -12 -20 -4 -23 -3 -14 8
6 8 15 12 19 9 4 -3 11 2 14 11 3 9 13 14 21 10 8 -3 17 -1 20 4 3 4 -1 11 -7
13 -8 4 -7 6 3 6 21 1 33 41 13 41 -11 0 -12 4 -5 19 9 17 6 19 -24 23 -25 3
-35 0 -35 -10 0 -7 -8 -12 -17 -11 -10 1 -26 -2 -37 -6 -12 -5 -34 0 -70 19
-28 15 -42 24 -31 20 11 -4 31 -9 45 -12 14 -3 28 -10 32 -16 5 -7 8 -6 8 4 0
9 3 11 8 4 4 -6 13 -4 24 7 14 15 14 18 2 23 -8 3 -12 2 -9 -4 3 -5 -4 -8 -15
-7 -20 1 -20 2 -3 15 10 7 27 10 38 7 11 -3 36 -9 55 -12 48 -8 91 -44 78 -66
-6 -11 -5 -17 1 -17 14 0 19 26 19 100 0 36 -2 55 -5 43 -3 -14 -12 -23 -23
-23 -10 0 -21 -6 -23 -12 -3 -8 -6 -6 -6 5 -1 9 6 17 14 17 8 0 15 7 15 15 0
9 6 18 14 21 19 7 16 45 -4 62 -13 12 -13 13 3 8 15 -5 17 2 17 54 0 33 -2 60
-5 60 -2 0 -15 -12 -28 -26 l-25 -26 2 23 c0 14 -4 23 -11 21 -7 -1 -13 2 -13
7 0 5 -10 11 -22 15 -19 5 -21 8 -8 16 11 7 12 10 2 10 -8 0 -16 -9 -19 -20
-6 -24 -21 -26 -29 -5 -4 8 -10 12 -15 9 -6 -3 -15 -1 -22 4 -7 5 -35 9 -64 8
-28 -1 -49 3 -46 8 3 5 0 6 -8 4 -8 -3 -13 -10 -12 -16 1 -6 -11 -13 -27 -17
-17 -4 -36 -15 -43 -26 -8 -10 -17 -16 -20 -12 -4 3 -38 5 -75 4 -38 -1 -80 3
-95 10 -21 9 -36 9 -72 -1 -25 -7 -45 -16 -45 -21 0 -5 7 -6 15 -3 8 4 15 2
15 -3 0 -9 70 -17 115 -14 68 6 95 3 95 -9 0 -5 -8 -9 -17 -8 -45 3 -74 -2
-67 -14 4 -6 3 -8 -4 -4 -12 7 -62 -13 -62 -26 0 -5 11 -6 24 -4 18 3 23 1 19
-10 -6 -16 -12 -17 -32 -5 -10 6 -21 5 -34 -4 -19 -13 -57 -9 -57 7 0 5 8 5
18 -1 15 -8 26 -3 55 23 l37 33 -45 -2 c-25 -1 -48 2 -51 7 -3 4 -10 8 -15 8
-6 0 -8 -4 -5 -9 3 -5 -1 -14 -9 -21 -8 -7 -12 -17 -8 -23 4 -6 -2 -8 -16 -4
-14 3 -24 -1 -31 -13 -5 -10 -17 -21 -27 -24 -14 -6 -13 -2 5 14 27 25 27 29
3 27 -11 0 -19 -6 -18 -12 1 -5 -4 -9 -11 -7 -8 1 -11 -2 -7 -8 3 -5 -1 -13
-9 -16 -9 -3 -14 -10 -11 -14 3 -5 -5 -12 -17 -16 -21 -6 -21 -7 -3 -20 18
-13 17 -14 -11 -14 -32 -1 -89 -44 -79 -60 3 -6 -1 -7 -9 -4 -10 4 -16 1 -16
-9 0 -21 20 -33 30 -18 5 9 11 7 21 -5 12 -16 12 -17 -3 -11 -10 4 -18 2 -18
-4 0 -6 -7 -8 -16 -5 -8 3 -12 2 -9 -4 3 -6 -1 -10 -9 -10 -9 0 -16 7 -16 15
0 8 6 15 13 15 9 0 9 2 0 8 -16 10 22 72 45 73 11 0 12 3 5 6 -16 6 45 59 63
55 12 -2 31 52 25 73 -1 5 0 7 4 3 4 -3 28 16 53 44 51 55 116 104 146 109 11
2 19 7 18 12 -3 11 22 36 31 30 4 -2 7 1 7 7 0 6 5 8 10 5 6 -4 8 -11 5 -16
-4 -5 2 -6 11 -2 11 4 13 8 6 11 -7 2 -12 8 -12 13 0 4 7 5 17 2 9 -4 14 -2
10 4 -6 10 30 47 48 48 6 1 9 6 8 11 -1 6 10 9 25 7 15 -3 53 0 84 5 32 5 59
5 60 1 2 -5 16 -2 32 6 15 8 42 15 60 15 17 1 49 8 71 16 22 8 45 16 50 17 6
1 13 7 17 12 5 6 8 5 8 -3 0 -7 10 -17 23 -22 21 -8 20 -9 -8 -10 -17 -1 -24
-4 -15 -7 8 -3 17 -9 20 -12 3 -3 15 -11 26 -18 l22 -12 1 137 c1 124 -1 135
-14 112 -10 -17 -14 -20 -15 -9 0 9 6 22 14 28 20 17 24 699 4 685 -7 -6 -30
-16 -50 -22 -43 -15 -116 -6 -99 11 15 15 14 27 -3 21 -14 -5 -26 23 -26 61 0
16 2 17 9 6 7 -10 10 3 10 40 1 101 5 129 19 124 6 -2 12 0 12 5 0 6 -6 10
-12 10 -8 0 -14 15 -14 38 -2 46 -6 59 -27 99 -21 40 -21 38 4 62 12 11 19 26
16 35 -4 11 -1 13 10 9 9 -4 14 -2 10 3 -3 6 30 28 73 50 l79 39 1 73 c0 69
-1 72 -19 62 -11 -5 -22 -14 -26 -19 -10 -17 -59 -37 -80 -32 -16 3 -13 6 15
17 l35 13 -35 -2 c-38 -2 -55 -32 -23 -40 10 -2 3 -4 -14 -4 -27 0 -31 3 -22
14 16 19 -1 16 -23 -4 -10 -9 -21 -13 -26 -9 -4 4 1 14 11 21 11 8 14 16 8 19
-5 4 -13 1 -18 -6 -12 -19 -98 -41 -168 -44 -33 -1 -51 1 -41 5 14 5 -1 11
-50 19 -107 16 -197 37 -221 50 -31 17 -29 24 2 12 16 -6 25 -6 25 0 0 6 -7
10 -16 10 -9 0 -12 5 -8 12 4 6 3 8 -3 5 -6 -4 -16 -1 -22 7 -7 8 -20 12 -30
9 -15 -4 -19 0 -17 21 1 21 5 25 21 20 11 -4 23 -12 27 -18 5 -8 8 -7 8 2 0 7
-7 15 -15 19 -14 5 -14 8 -1 28 13 20 13 25 1 35 -17 14 -20 40 -4 40 5 0 7
-4 4 -10 -3 -5 1 -10 10 -10 12 0 15 5 11 16 -5 14 -4 15 8 4 13 -10 15 -7 11
19 -2 17 1 33 6 37 5 3 8 0 7 -7 -2 -6 2 -13 8 -16 16 -5 10 37 -6 47 -12 7
-12 10 2 15 10 4 14 14 11 26 -4 14 0 19 16 19 12 0 19 -4 16 -10 -3 -6 1 -7
10 -4 11 5 13 10 5 19 -8 9 -6 15 7 20 26 12 43 14 43 7 0 -4 12 -8 26 -8 14
-1 23 1 19 4 -7 8 -71 31 -114 42 -39 10 -68 32 -30 23 13 -3 69 -19 124 -36
55 -17 103 -30 107 -29 3 1 8 -5 11 -12 4 -11 -2 -12 -30 -6 -35 8 -35 8 -15
-10 11 -11 30 -17 41 -15 12 2 21 -1 21 -6 0 -5 6 -9 13 -8 24 3 38 -1 33 -10
-3 -5 -20 -7 -38 -5 -23 3 -29 1 -18 -5 8 -6 18 -7 24 -4 5 3 6 1 2 -6 -4 -6
-11 -9 -16 -6 -5 3 -12 0 -15 -6 -4 -5 -13 -8 -20 -5 -8 3 -19 -1 -25 -9 -9
-11 -17 -11 -36 -3 -22 10 -22 12 -6 24 9 7 13 14 8 14 -4 0 -22 -12 -39 -26
-24 -20 -32 -22 -39 -12 -8 10 -9 10 -6 -1 4 -15 56 -22 64 -9 3 5 10 6 15 3
5 -4 -2 -17 -16 -29 l-25 -24 22 -5 c12 -3 29 -2 37 4 13 8 11 9 -6 4 -27 -7
-32 12 -7 22 11 4 22 -1 30 -12 8 -10 14 -15 15 -9 0 5 3 1 7 -8 6 -14 10 -15
26 -3 17 13 17 15 -14 27 -29 12 -31 15 -16 27 14 12 16 12 10 -4 -6 -14 -3
-16 12 -11 10 3 25 2 33 -3 17 -11 57 5 65 25 3 8 0 11 -10 7 -7 -3 -14 -1
-14 5 0 5 7 12 15 16 12 4 13 11 5 32 -9 24 -9 25 5 14 13 -11 14 -10 9 5 -5
13 -15 16 -40 12 -19 -3 -37 -1 -40 5 -5 8 19 9 82 4 66 -5 103 -2 144 9 30 9
75 18 100 20 l45 5 -32 -14 c-36 -16 -41 -23 -18 -23 8 0 15 5 15 10 0 5 7 4
15 -3 8 -6 19 -8 26 -5 8 6 10 -4 7 -34 -2 -22 0 -41 4 -41 5 0 8 48 8 106 0
105 0 105 -22 98 -35 -11 -69 -13 -63 -4 3 4 -7 11 -22 15 -20 5 -23 9 -13 15
7 5 23 3 37 -3 18 -8 27 -7 36 2 10 11 8 12 -10 6 -18 -5 -22 -3 -17 9 5 13 1
14 -25 6 -17 -4 -36 -11 -43 -15 -7 -3 1 6 18 22 17 15 36 39 43 53 l12 25
-17 -22 c-17 -24 -40 -32 -29 -10 4 6 -1 3 -9 -7 -9 -11 -16 -22 -16 -25 0
-11 -99 -11 -105 -1 -3 6 -11 10 -16 10 -6 0 -8 -4 -4 -9 3 -5 -3 -12 -12 -14
-11 -3 -5 -5 12 -6 22 -1 26 -4 16 -10 -9 -6 -22 -6 -34 0 -10 6 -25 8 -34 5
-8 -3 -21 1 -30 9 -14 14 -13 15 11 11 14 -2 28 0 31 5 4 5 -1 9 -9 9 -9 0
-16 4 -16 10 0 5 16 7 35 5 26 -4 40 0 56 18 19 19 21 19 15 3 -5 -16 -4 -17
9 -6 8 7 13 16 10 20 -3 5 -1 11 4 14 5 3 11 -1 15 -9 3 -8 11 -15 18 -15 9 0
8 3 -2 10 -12 8 -11 10 7 10 12 0 25 5 29 11 4 8 0 9 -15 4 -12 -4 -21 -2 -21
4 0 6 5 11 11 11 5 0 7 5 4 10 -4 6 6 16 22 23 19 8 29 20 30 37 l2 25 -11
-22 c-7 -16 -20 -23 -38 -23 -15 0 -35 -9 -46 -21 -15 -16 -15 -20 -4 -18 9 2
15 0 15 -6 0 -10 -5 -10 -58 -1 -15 2 -25 0 -22 -4 3 -5 13 -6 21 -3 14 5 15
3 5 -15 -12 -23 -31 -30 -31 -11 0 8 -5 8 -15 -1 -8 -7 -13 -16 -10 -19 2 -4
-2 -8 -10 -8 -18 0 -19 9 -4 24 9 9 6 10 -10 6 -22 -6 -39 -23 -23 -23 6 0 8
-9 5 -20 -5 -19 -6 -19 -24 3 -12 14 -18 17 -17 7 2 -8 8 -18 13 -22 6 -4 2
-8 -9 -8 -12 0 -16 5 -12 15 3 8 1 15 -4 15 -6 0 -10 -8 -11 -17 0 -14 -2 -15
-6 -3 -4 8 -13 20 -22 27 -15 11 -14 12 1 13 9 0 18 -4 20 -10 2 -5 9 -6 17
-1 9 6 10 14 3 27 -8 14 -20 19 -47 18 -23 -1 -35 2 -32 9 4 13 -34 47 -53 47
-15 0 -8 22 10 28 8 3 10 0 5 -8 -5 -8 -3 -11 5 -8 22 7 21 38 -2 38 -14 0
-18 5 -14 15 9 25 -22 17 -40 -10 -9 -14 -21 -25 -27 -25 -7 0 -7 4 1 12 18
18 15 33 -3 18 -9 -7 -14 -19 -11 -25 2 -7 -1 -18 -7 -24 -8 -8 -8 -11 0 -11
15 0 10 -33 -5 -38 -7 -2 -12 -10 -12 -18 0 -9 5 -12 10 -9 6 3 10 1 10 -4 0
-6 12 -11 26 -11 17 0 23 -4 18 -12 -5 -8 -2 -9 10 -5 10 4 20 7 22 7 2 0 4 5
4 10 0 6 -5 10 -12 10 -6 0 -20 8 -31 18 -11 9 -17 11 -13 5 5 -9 2 -11 -9 -7
-11 5 -13 10 -5 19 5 6 7 15 3 18 -3 4 -1 7 6 7 7 0 9 5 5 11 -10 18 28 -6 50
-30 13 -15 15 -21 6 -21 -14 0 -5 -14 11 -16 5 -1 11 -2 14 -3 3 0 -3 -11 -15
-23 -23 -25 -28 -47 -4 -24 8 9 20 16 26 16 6 0 2 -8 -10 -18 -12 -10 -32 -18
-44 -16 -13 1 -30 3 -38 4 -11 1 -11 3 -2 7 8 3 5 11 -12 24 -31 24 -33 24
-40 -7 -8 -29 -33 -27 -28 2 4 28 7 38 15 52 5 6 5 17 2 22 -4 6 5 33 19 59
14 27 22 51 19 55 -3 3 8 19 25 36 36 34 29 46 -14 24 -27 -14 -28 -14 -13 1
9 9 27 17 40 17 13 1 31 6 39 12 13 10 13 9 0 -8 -14 -17 -13 -18 6 -12 25 8
56 -2 48 -15 -3 -5 -10 -9 -15 -9 -6 0 -7 4 -4 10 4 6 -1 7 -11 3 -10 -4 -13
-8 -7 -10 22 -8 2 -34 -21 -28 -19 5 -19 5 -3 -5 10 -7 28 -9 40 -6 11 3 27 1
33 -5 9 -7 19 -7 33 0 11 6 26 8 34 5 8 -3 17 1 19 8 4 9 -4 14 -23 15 -16 1
-29 -2 -29 -7 0 -14 -37 -12 -46 2 -5 7 0 9 14 6 13 -4 23 0 26 8 3 8 15 12
28 10 13 -1 29 4 36 13 12 14 13 14 8 -1 -6 -20 2 -22 23 -9 7 5 10 14 7 20
-4 6 0 11 8 11 9 0 16 -7 16 -15 0 -8 -4 -15 -8 -15 -4 0 -8 -9 -8 -20 0 -11
4 -20 9 -20 4 0 5 -5 1 -11 -3 -6 1 -10 12 -9 52 6 60 -17 17 -48 -16 -11 -25
-23 -22 -26 12 -13 36 6 52 39 9 19 24 35 32 35 9 0 13 5 9 11 -4 8 1 9 17 5
17 -5 15 -1 -9 12 l-32 18 45 0 c28 0 49 5 54 13 5 8 14 10 20 7 6 -4 14 0 17
8 10 26 24 18 24 -14 0 -19 -5 -30 -14 -30 -20 0 -29 -17 -15 -26 7 -4 10 -3
6 2 -3 5 5 14 17 20 18 8 23 8 23 -3 0 -7 -5 -13 -11 -13 -6 0 -6 -4 1 -11 8
-8 7 -18 -3 -37 -19 -37 -5 -48 23 -18 13 14 31 26 39 26 12 0 14 10 12 48 -2
37 -7 47 -20 46 -9 -1 -18 6 -21 16 -3 13 1 16 19 12 27 -5 38 23 31 79 -2 19
-5 30 -6 24z m-2625 -129 c23 -23 38 -66 22 -66 -5 0 -7 -4 -4 -9 3 -5 -1 -15
-10 -22 -14 -11 -18 -11 -29 4 -12 17 -31 24 -21 8 3 -5 -1 -12 -10 -15 -8 -3
-12 -2 -9 4 3 6 -1 10 -10 10 -9 0 -14 4 -10 10 3 5 12 7 19 4 8 -3 17 -1 20
4 3 6 -5 13 -19 16 -14 4 -25 10 -25 15 0 6 -13 6 -32 0 -20 -5 -34 -5 -38 1
-3 5 -19 11 -36 11 -43 2 -64 9 -64 21 0 7 5 6 15 -2 8 -6 19 -9 24 -5 6 3 26
2 44 -3 28 -8 33 -7 34 9 2 23 -13 34 -23 18 -4 -8 -3 -9 4 -5 7 4 12 2 12 -5
0 -7 -8 -9 -22 -4 -13 3 -28 7 -35 7 -6 1 -9 7 -7 13 4 9 31 11 96 7 76 -4 96
-8 114 -26z m-762 -75 c17 -7 26 -7 29 2 2 8 5 8 11 -1 5 -8 -2 -14 -22 -18
-43 -9 -36 -31 11 -32 22 -1 45 -6 51 -11 6 -5 28 -8 49 -7 21 1 41 -2 43 -6
7 -12 24 -10 24 3 0 5 -6 7 -12 3 -10 -5 -10 -4 -1 6 10 11 16 10 33 -5 24
-22 18 -34 -15 -27 -19 3 -24 1 -20 -10 4 -10 30 -15 101 -16 64 -2 94 1 89 8
-3 5 -15 10 -26 10 -19 0 -25 11 -12 23 4 4 19 -4 34 -19 15 -14 30 -26 33
-25 16 3 26 0 26 -6 0 -7 -117 -14 -185 -12 -11 1 -57 2 -102 3 -44 0 -85 4
-89 9 -4 4 -2 7 4 7 7 0 12 5 12 10 0 6 -7 10 -16 10 -8 0 -12 5 -9 10 4 7 -2
9 -18 5 -23 -6 -36 6 -43 40 -1 6 -3 12 -4 15 -4 12 -8 40 -5 40 2 0 15 -4 29
-9z m-25 -162 c27 -10 35 -19 33 -40 -1 -3 19 -4 44 -2 28 3 51 -1 61 -9 15
-11 16 -11 10 5 -7 20 -3 21 24 7 11 -7 19 -7 19 -1 0 5 -6 12 -12 14 -7 3 1
6 17 6 17 1 43 -6 59 -14 19 -10 33 -12 39 -6 5 5 17 7 26 4 9 -3 3 6 -14 21
l-30 25 27 -1 c15 -1 25 -4 23 -6 -2 -3 2 -11 10 -19 20 -19 19 -26 -6 -41
-16 -10 -28 -10 -53 -2 -51 16 -77 20 -71 9 4 -5 11 -7 16 -4 5 3 6 0 4 -7 -3
-8 -19 -15 -36 -16 -17 -1 -40 -7 -51 -13 -14 -8 -23 -8 -31 0 -8 8 -3 11 19
12 l29 1 -31 7 c-17 4 -36 11 -42 15 -7 4 -12 3 -12 -3 0 -5 6 -11 13 -14 6
-2 -4 -7 -23 -12 -19 -4 -47 -14 -62 -23 -19 -11 -31 -13 -38 -6 -18 18 -14
124 4 124 2 0 17 -5 35 -11z m732 -124 c3 -16 7 -34 9 -40 5 -22 -1 -36 -12
-30 -7 4 -6 0 3 -7 15 -12 15 -17 4 -38 -11 -20 -13 -21 -16 -6 -4 15 -6 16
-24 1 -16 -12 -17 -14 -2 -9 11 4 17 1 17 -10 0 -10 -8 -16 -22 -15 -13 0 -30
-1 -38 -2 -28 -4 -50 1 -50 12 0 6 6 9 12 7 16 -6 43 20 33 30 -4 4 -10 1 -12
-5 -3 -7 -12 -13 -20 -13 -12 0 -13 3 -4 13 6 8 7 17 3 21 -4 4 -2 7 3 6 22
-5 26 1 11 15 -8 8 -20 15 -26 15 -7 0 -10 -7 -6 -15 4 -11 -1 -15 -17 -14
-12 0 -16 3 -9 6 18 7 15 31 -5 36 -13 3 -10 5 7 6 l25 2 -28 15 c-16 9 -35
13 -43 10 -8 -3 -14 0 -14 7 0 9 -3 9 -9 -1 -4 -7 -12 -12 -17 -11 -5 1 -20 0
-34 -1 -24 -2 -24 -3 5 -10 29 -8 29 -8 -10 -10 -22 -2 -46 -3 -52 -3 -7 1
-13 -4 -13 -11 0 -6 -5 -18 -10 -26 -8 -12 -12 -11 -30 8 -25 27 -61 32 -39 5
13 -15 12 -15 -8 -5 -27 15 -43 15 -43 2 0 -5 6 -10 14 -10 8 0 17 -4 20 -9 4
-5 -3 -7 -13 -4 -10 3 -29 -1 -42 -8 -15 -7 -24 -8 -26 -2 -2 6 -11 19 -19 29
-13 16 -15 16 -10 2 3 -12 1 -15 -10 -11 -7 3 -14 0 -14 -6 0 -6 -7 -11 -16
-11 -8 0 -12 4 -9 10 4 6 -1 7 -11 3 -12 -4 -15 -3 -10 6 4 7 -9 3 -30 -8 -26
-14 -40 -17 -45 -10 -4 6 -9 7 -12 2 -3 -5 -2 -15 3 -23 7 -12 12 -12 22 -2
15 15 32 16 22 0 -5 -8 -2 -9 9 -5 10 4 17 2 17 -4 0 -7 10 -9 23 -6 12 4 29
2 37 -3 13 -9 13 -10 0 -11 -8 -1 -19 -1 -23 0 -5 1 -6 -3 -3 -8 8 -13 58 -11
53 3 -7 20 21 38 40 27 11 -6 13 -11 5 -11 -7 0 -10 -5 -7 -10 4 -6 12 -10 18
-9 26 3 35 -2 33 -18 -4 -24 -30 -28 -59 -9 -13 9 -26 13 -30 10 -10 -10 -87
-10 -87 1 0 6 -3 5 -8 -1 -4 -7 -15 -8 -27 -3 -19 7 -19 8 -1 8 24 1 11 16
-21 26 -18 5 -22 3 -17 -9 9 -23 -4 -19 -17 5 -8 15 -8 19 0 15 6 -4 11 -3 11
2 0 14 -26 33 -33 25 -4 -3 -13 -1 -20 5 -8 7 -16 10 -19 7 -2 -3 -5 2 -5 11
0 9 9 19 19 22 10 2 15 9 11 16 -3 6 -3 8 2 4 12 -11 47 11 38 25 -4 7 0 6 10
-2 10 -8 20 -11 24 -7 3 3 1 6 -6 6 -7 0 -10 4 -6 10 5 9 74 5 83 -5 3 -3 10
-1 16 4 19 15 298 36 476 36 l124 0 7 -30z m822 -212 c-7 -2 -13 -9 -13 -15 0
-6 9 -3 20 7 15 14 23 15 33 6 8 -6 16 -9 19 -6 2 3 5 -2 5 -10 0 -10 -8 -13
-24 -11 -13 3 -21 1 -18 -4 3 -5 22 -12 43 -15 70 -11 83 -16 77 -25 -3 -6 1
-7 9 -4 9 3 16 2 16 -4 0 -6 15 -15 33 -21 56 -19 217 -140 217 -164 0 -5 -4
-5 -10 -2 -14 9 -13 -8 2 -23 23 -23 2 -21 -26 3 -15 13 -34 21 -42 18 -8 -3
-14 0 -14 6 0 6 5 11 12 11 14 0 2 13 -15 16 -7 2 -24 6 -39 9 -18 3 -28 1
-28 -6 0 -8 -4 -8 -15 1 -19 16 -19 30 -1 30 8 0 17 4 20 9 4 5 -3 7 -14 4
-13 -4 -30 3 -45 17 -13 12 -28 19 -34 16 -6 -4 -33 0 -60 8 -27 8 -52 12 -55
9 -3 -3 -16 8 -30 23 l-24 29 -24 -20 -23 -20 19 23 c11 12 17 22 15 23 -34 7
-129 7 -129 0 0 -13 27 -21 48 -15 13 4 12 2 -3 -7 -27 -18 -54 -19 -48 -2 7
18 -14 16 -25 -2 -5 -10 -15 -13 -25 -9 -24 9 -21 23 3 17 12 -3 20 0 20 6 0
14 -60 9 -103 -8 -16 -6 -33 -9 -38 -5 -5 3 -8 2 -7 -3 2 -4 -4 -18 -13 -31
-15 -21 -48 -26 -65 -9 -4 4 -14 7 -23 7 -13 -1 -12 -4 4 -17 16 -13 17 -15 3
-10 -10 4 -18 2 -18 -4 0 -6 -4 -8 -9 -4 -5 3 -12 1 -16 -5 -8 -13 35 -13 54
-1 10 7 19 4 28 -7 8 -11 12 -12 13 -4 0 6 3 12 8 11 14 -2 52 13 52 21 0 5
-8 11 -17 13 -13 3 -14 5 -3 6 8 0 24 -6 35 -15 16 -12 17 -16 6 -23 -7 -5
-22 -6 -34 -3 -14 3 -18 1 -13 -6 4 -7 15 -12 24 -12 23 1 54 25 44 35 -4 5
-1 5 7 0 9 -5 19 -2 28 10 7 11 13 14 13 9 0 -5 9 -10 20 -11 25 -2 26 14 3
21 -10 3 3 3 30 1 29 -3 47 -1 47 6 0 6 4 8 8 5 5 -3 25 -6 45 -8 27 -1 34 -5
26 -14 -7 -8 -6 -15 2 -20 8 -4 9 -3 5 4 -5 8 -2 10 9 6 14 -6 14 -8 -2 -20
-17 -14 -16 -14 7 -12 14 2 24 9 23 16 -2 7 7 12 20 11 l22 0 -22 -16 c-29
-20 -30 -37 -2 -22 15 8 19 8 15 0 -4 -6 0 -11 8 -11 9 0 16 5 16 10 0 6 4 10
9 10 19 0 3 -35 -16 -36 -11 -1 -27 -5 -34 -9 -12 -7 -12 -6 -1 7 12 15 8 17
-40 15 -33 -1 -59 -8 -68 -17 -8 -9 -11 -11 -7 -4 4 7 3 15 -3 19 -13 8 -32
-4 -25 -16 3 -5 -1 -6 -9 -3 -8 3 -30 -5 -48 -19 -41 -30 -71 -42 -65 -25 2 7
11 12 19 10 8 -1 25 9 38 23 17 18 19 25 9 26 -52 5 -62 8 -70 20 -6 11 -11
11 -20 2 -9 -9 -2 -16 27 -31 l39 -21 -30 1 c-16 1 -38 -2 -48 -6 -9 -5 -29
-5 -44 -1 -26 6 -26 7 -9 17 14 8 25 7 39 -1 15 -10 17 -10 12 0 -6 8 -4 10 6
5 8 -4 5 0 -5 8 -23 18 -43 21 -48 6 -2 -6 -19 -2 -42 10 -42 21 -69 17 -39
-6 10 -8 0 -5 -23 6 -23 12 -53 19 -72 16 -17 -2 -29 1 -26 5 3 5 20 9 37 9
29 1 30 2 15 14 -10 7 -15 16 -11 19 3 4 12 2 20 -5 7 -6 16 -8 20 -4 4 3 -2
12 -12 20 -10 7 -16 17 -12 22 3 5 -15 8 -39 7 -24 0 -47 3 -50 8 -3 5 -10 7
-15 3 -5 -3 -18 0 -27 7 -13 10 -12 8 2 -9 11 -12 17 -24 14 -27 -11 -11 -83
11 -83 25 0 10 -9 14 -23 13 -15 -2 -21 1 -16 9 4 6 3 8 -3 5 -17 -11 -75 -18
-69 -9 3 5 -5 8 -17 7 -12 -1 -28 3 -36 9 -11 8 -13 8 -7 -1 4 -8 1 -13 -8
-13 -9 0 -16 4 -16 9 0 6 -8 8 -19 6 -10 -2 -30 2 -44 10 -14 7 -30 9 -38 4
-8 -4 -19 -3 -26 3 -20 16 -26 3 -8 -16 18 -17 16 -19 -9 -10 -9 3 -14 10 -11
14 3 4 -6 7 -19 6 -13 0 -22 -5 -19 -9 3 -5 -5 -3 -18 4 -23 13 -21 14 31 22
30 5 70 9 89 9 19 -1 43 4 53 9 13 7 20 6 23 -3 3 -8 18 -15 32 -16 25 -2 25
-1 9 11 -16 12 -10 13 47 13 37 -1 63 -5 59 -10 -3 -5 2 -7 10 -3 9 3 25 -1
36 -9 12 -8 25 -13 29 -12 4 1 33 -1 63 -5 144 -18 206 -18 285 -2 44 9 91 18
105 20 14 2 26 4 28 6 1 1 5 2 10 4 4 1 15 5 24 9 10 4 23 6 30 4 7 -3 25 0
40 6 14 6 39 12 55 13 15 1 22 -1 16 -4z m932 -213 c11 -5 42 -18 68 -30 26
-11 57 -32 69 -45 12 -13 25 -22 30 -19 5 3 14 1 21 -4 11 -9 59 -24 175 -54
40 -11 58 -28 28 -28 -8 0 -17 -4 -20 -8 -3 -5 17 -8 44 -7 28 1 50 -2 50 -5
0 -4 14 -5 31 -2 21 3 34 -1 43 -13 7 -10 18 -15 24 -11 6 3 13 2 17 -4 3 -5
2 -10 -2 -10 -5 0 -8 -12 -7 -27 1 -16 3 -34 3 -40 1 -7 5 -13 10 -13 5 0 7
10 4 23 -4 18 -3 19 6 7 10 -13 11 -13 12 0 1 8 1 19 0 23 -1 4 12 1 29 -8 17
-9 36 -15 43 -14 31 4 35 -2 32 -42 -1 -22 -5 -43 -9 -46 -3 -4 -6 -19 -6 -34
0 -15 -5 -31 -11 -35 -8 -5 -6 -10 5 -16 16 -9 16 -12 1 -34 -9 -14 -11 -24
-5 -24 6 0 8 -5 4 -11 -4 -8 -10 -5 -17 7 -15 28 -15 28 -32 14 -13 -11 -18
-11 -28 0 -10 10 -8 12 8 6 15 -5 17 -4 9 4 -9 9 -18 9 -35 -1 -29 -15 -50
-35 -43 -41 2 -3 -6 -5 -18 -4 -15 1 -23 7 -22 19 1 9 -1 15 -5 13 -11 -7 -36
12 -28 21 4 4 22 2 39 -5 27 -10 36 -9 62 8 29 18 30 20 8 20 -13 0 -20 -4
-17 -10 3 -5 1 -10 -4 -10 -6 0 -11 5 -11 10 0 6 -6 10 -14 10 -7 0 -19 6 -25
13 -11 14 -38 16 -58 4 -7 -4 -17 0 -23 10 -11 17 -11 17 -6 1 4 -13 0 -18
-15 -18 -16 0 -19 4 -14 23 4 15 3 18 -3 8 -6 -9 -12 -10 -16 -3 -4 6 3 16 14
22 25 13 26 30 3 31 -14 0 -13 2 5 9 32 13 28 16 -25 16 -32 0 -52 -5 -59 -15
-17 -23 -147 -22 -170 0 -11 11 -12 19 -5 23 6 4 11 0 11 -8 0 -23 33 -19 49
5 10 16 15 19 21 9 11 -17 29 -4 25 18 -2 9 -4 24 -4 32 -1 12 -3 13 -10 1 -5
-7 -11 -9 -14 -5 -3 5 0 14 7 20 9 8 15 7 24 -3 7 -7 10 -13 7 -13 -4 0 1 -7
9 -16 18 -18 22 -39 5 -28 -7 4 -10 -1 -7 -11 3 -21 48 -29 48 -9 0 7 -4 16
-10 19 -5 3 -10 11 -10 16 0 6 4 7 10 4 6 -3 7 1 4 9 -4 10 -1 16 8 16 7 0 18
10 23 22 6 12 21 25 35 28 21 5 22 7 7 13 -20 8 -87 -46 -88 -72 0 -11 -3 -9
-9 7 -5 12 -14 22 -20 22 -8 0 -8 6 0 20 10 19 8 20 -40 16 -34 -2 -48 0 -42
6 16 16 76 16 95 0 15 -13 17 -13 17 1 0 10 -7 17 -15 17 -17 0 -18 2 -9 24 3
9 14 16 24 16 11 0 21 4 25 9 3 6 -6 6 -24 1 -16 -4 -33 -5 -37 -2 -4 4 -4 1
0 -5 4 -7 2 -13 -4 -13 -6 0 -8 -4 -5 -10 3 -5 1 -10 -4 -10 -6 0 -11 5 -11
11 0 6 -7 9 -15 6 -8 -4 -17 -2 -20 3 -4 6 -1 10 6 10 7 0 9 3 6 6 -4 4 -12 2
-19 -3 -19 -15 -72 -23 -87 -13 -11 6 -10 10 5 18 11 5 24 7 31 5 6 -2 14 0
17 6 4 6 13 8 20 5 7 -3 18 2 25 10 11 13 6 17 -31 27 -24 7 -49 12 -55 10 -7
-1 -13 3 -13 10 0 8 -5 8 -17 -2 -17 -12 -17 -12 -1 6 17 18 16 20 -24 42 -33
19 -43 21 -56 11 -12 -10 -16 -10 -19 -1 -2 7 -11 9 -20 6 -11 -4 -14 -2 -9 5
10 17 -15 14 -38 -3 -11 -8 -33 -15 -49 -15 -32 0 -66 -16 -84 -39 -15 -19
-17 -34 -3 -26 6 3 10 4 10 1 0 -3 -15 -12 -34 -20 -36 -15 -78 -51 -69 -59 3
-3 -3 -4 -14 -3 -22 3 -25 31 -3 31 8 0 15 5 15 12 0 6 4 15 9 20 5 5 6 3 2
-4 -4 -7 -2 -13 3 -13 6 0 11 7 11 15 0 8 -5 15 -12 15 -6 0 -8 3 -4 7 4 5 14
0 21 -10 7 -10 16 -14 19 -8 4 5 2 12 -4 16 -14 9 -13 26 2 23 7 -2 12 3 13
10 1 30 151 93 204 85 14 -3 35 -8 46 -13z m-1265 -94 c0 -23 17 -28 61 -16
30 8 45 8 52 1 14 -14 37 -14 37 0 0 5 -4 8 -9 4 -5 -3 -12 -1 -16 5 -3 5 3
10 14 10 27 0 51 -10 51 -22 0 -5 -5 -6 -12 -2 -6 4 -8 3 -4 -4 3 -6 23 -9 44
-7 21 2 45 -1 52 -5 8 -5 19 -5 26 1 7 6 15 5 22 -3 8 -10 4 -13 -16 -13 -15
0 -33 4 -41 9 -8 5 -16 4 -21 -4 -4 -7 -15 -10 -23 -7 -11 4 -14 1 -10 -8 3
-8 9 -12 14 -9 5 3 9 0 9 -5 0 -18 -18 -12 -46 15 -21 22 -28 24 -35 13 -5 -9
-4 -15 4 -18 14 -4 47 -37 47 -46 0 -4 -15 6 -32 21 -18 15 -33 30 -33 35 0 4
-4 11 -8 16 -5 4 -8 4 -7 -2 5 -23 -1 -36 -12 -28 -24 15 -44 12 -56 -7 -12
-20 -6 -26 21 -21 5 1 26 -12 47 -29 25 -20 53 -32 80 -34 23 -2 45 -8 48 -12
4 -4 -5 -4 -20 0 -16 3 -28 2 -28 -3 0 -5 16 -8 36 -7 20 1 38 -2 40 -6 3 -4
16 -2 29 4 19 8 27 7 40 -6 9 -9 13 -16 8 -16 -5 0 -14 5 -20 11 -7 7 -13 7
-17 1 -4 -6 2 -17 12 -24 10 -7 22 -20 27 -28 4 -8 -5 -3 -22 13 -16 15 -32
24 -36 21 -4 -4 -13 -1 -22 6 -10 8 -15 9 -15 1 0 -6 5 -11 10 -11 6 0 10 -4
10 -9 0 -5 -9 -7 -20 -4 -11 3 -18 9 -15 13 3 4 -2 11 -11 14 -10 4 -13 2 -8
-6 5 -7 -1 -9 -20 -4 -21 5 -26 3 -27 -11 0 -11 -3 -13 -6 -5 -6 16 -28 15
-43 -3 -9 -10 -9 -15 -1 -15 6 0 11 -7 11 -15 0 -21 16 -19 33 5 8 11 17 17
21 13 4 -4 4 0 0 10 -5 13 -2 16 11 11 15 -6 13 -11 -15 -36 -18 -15 -36 -28
-40 -28 -3 0 -17 11 -30 25 -12 13 -25 23 -29 22 -3 0 -16 5 -29 12 -26 14
-57 7 -46 -10 4 -8 3 -9 -4 -5 -6 4 -20 3 -29 -3 -13 -6 -29 -5 -51 4 -21 9
-32 10 -32 3 0 -6 -7 -5 -17 3 -16 13 -17 12 -5 -3 7 -9 21 -15 31 -13 10 2
24 -1 32 -6 10 -6 11 -9 1 -9 -10 0 -10 -5 -1 -22 7 -13 13 -25 13 -28 1 -3 7
-3 15 -2 7 2 10 -1 6 -7 -3 -6 -1 -11 5 -11 6 0 1 -13 -12 -30 -23 -31 -44
-41 -35 -16 4 10 1 13 -8 9 -8 -3 -13 -8 -10 -12 5 -10 -26 -7 -43 3 -17 11
-15 37 3 30 8 -4 12 -10 9 -15 -3 -5 0 -9 5 -9 6 0 11 4 11 9 0 4 12 7 27 5
15 -1 31 2 35 9 8 13 -27 41 -41 33 -5 -3 -15 2 -22 11 -13 15 -11 16 16 9
l30 -6 -29 25 c-16 15 -35 24 -42 21 -7 -3 -16 0 -20 6 -5 7 -2 8 6 3 9 -6 10
-2 5 16 -10 31 -10 31 -37 33 -17 1 -23 7 -22 23 0 19 -2 21 -15 10 -9 -6 -21
-18 -27 -26 -7 -9 -13 -10 -17 -4 -4 5 4 16 18 23 29 16 22 40 -13 40 -31 0
-27 5 11 14 19 4 26 3 22 -4 -8 -12 20 -24 35 -15 8 5 8 11 -1 21 -6 8 -9 14
-5 14 3 0 9 0 14 0 4 0 7 -5 7 -12 0 -7 11 -15 25 -18 l24 -6 -23 -16 c-13 -9
-30 -14 -37 -11 -8 3 -14 0 -14 -6 0 -6 6 -11 14 -11 7 0 26 -10 41 -22 20
-16 30 -19 33 -10 3 10 7 10 18 1 8 -6 14 -9 14 -6 0 3 12 2 28 -2 18 -5 35
-3 51 8 25 16 111 23 111 9 0 -4 7 -5 16 -1 13 5 13 8 2 15 -9 7 -2 8 20 4 38
-7 42 4 7 20 -18 9 -25 9 -30 0 -3 -8 -7 -7 -11 2 -3 6 -12 12 -20 12 -8 0
-14 -6 -14 -12 0 -7 -5 -5 -11 5 -12 20 -30 22 -48 5 -12 -13 -91 -18 -91 -7
0 4 -11 10 -24 13 -14 3 -38 19 -54 36 -21 21 -37 28 -53 25 -13 -3 -40 -7
-59 -11 -31 -4 -33 -4 -15 7 11 7 30 23 41 37 12 13 24 20 28 14 3 -5 18 -7
33 -4 16 2 25 2 22 -2 -3 -3 -18 -7 -32 -8 -15 -1 -27 -6 -27 -11 0 -4 -4 -6
-9 -2 -5 3 -13 0 -16 -5 -5 -8 4 -9 27 -5 92 16 112 15 131 -5 10 -11 23 -17
29 -14 7 4 8 2 4 -4 -16 -26 34 -2 73 34 14 13 34 24 43 24 10 0 18 3 18 8 0
9 -121 9 -135 0 -6 -4 -17 -3 -24 2 -10 6 -9 9 8 15 11 3 25 3 31 0 5 -3 10 1
10 9 0 8 -8 17 -17 19 -14 4 -12 5 5 6 13 1 22 -5 22 -13z m-196 -231 c-7 -18
7 -20 24 -3 26 26 10 -2 -18 -32 -16 -18 -30 -27 -30 -20 0 7 -8 9 -22 5 -16
-4 -19 -3 -9 3 10 8 11 14 2 28 -7 11 -11 13 -8 4 2 -8 -2 -21 -10 -28 -15
-16 -18 -36 -3 -27 6 3 10 2 10 -3 0 -6 12 -13 26 -16 22 -6 24 -9 13 -24 -7
-9 -9 -14 -5 -10 5 4 16 2 25 -5 14 -10 14 -10 4 4 -16 20 -5 33 15 16 12 -9
16 -9 19 1 3 6 10 12 16 12 6 0 0 -11 -12 -24 -19 -20 -20 -24 -6 -30 11 -4
14 -2 9 7 -4 6 4 2 18 -10 13 -13 32 -23 42 -23 15 0 16 -3 6 -15 -7 -8 -23
-15 -37 -15 -13 0 -21 -4 -18 -10 4 -6 -1 -7 -11 -3 -14 5 -13 8 7 18 13 7 30
10 38 7 9 -3 13 -2 10 2 -11 11 -48 15 -54 5 -12 -18 -35 -9 -32 13 2 18 -5
23 -42 31 -31 6 -46 5 -51 -3 -8 -13 -23 3 -26 28 -3 18 -14 29 -14 14 0 -7
-7 -9 -17 -5 -16 6 -16 4 1 -15 11 -12 16 -22 12 -22 -4 0 -16 10 -26 22 -15
19 -21 21 -43 11 -20 -9 -26 -9 -30 0 -5 12 3 15 63 18 16 1 27 6 25 10 -3 4
4 5 14 2 13 -3 23 2 31 17 11 20 10 21 -12 16 -12 -3 -17 -3 -10 0 6 3 10 9 7
14 -3 4 4 6 16 3 19 -5 20 -3 11 14 -10 17 -7 19 31 22 23 1 43 4 46 7 8 8 10
4 5 -11z m449 -32 c-7 -2 -9 -12 -5 -21 7 -21 63 -68 75 -64 5 1 6 -2 3 -7 -7
-11 25 -27 61 -30 9 0 13 -4 10 -8 -4 -3 1 -12 11 -19 36 -28 -6 -13 -54 19
-62 41 -98 53 -85 29 5 -10 7 -25 5 -35 -1 -10 3 -20 10 -23 7 -3 13 -11 13
-19 0 -9 -5 -11 -11 -7 -6 5 -18 8 -26 7 -8 -1 -26 2 -38 7 -19 6 -28 3 -43
-14 -10 -13 -18 -17 -19 -10 0 6 5 12 12 12 6 0 8 3 4 7 -4 4 -14 8 -22 8 -27
0 -8 20 20 20 27 1 53 25 27 25 -6 0 -11 5 -11 10 0 6 7 10 15 10 8 0 15 5 15
11 0 6 -7 9 -15 6 -8 -4 -17 -2 -20 3 -4 6 -1 10 6 10 7 0 10 2 7 5 -2 3 -19
-2 -37 -11 -32 -16 -37 -34 -11 -42 8 -3 10 0 5 8 -5 8 -4 11 3 6 5 -3 12 0
15 6 2 7 7 11 10 8 15 -13 -15 -33 -52 -35 -22 -1 -38 2 -35 6 3 5 -8 12 -25
15 -17 4 -31 9 -31 13 0 12 54 5 58 -7 6 -18 16 -15 30 8 12 20 11 21 -35 19
-26 -1 -54 -7 -61 -12 -9 -7 -17 -6 -25 2 -9 10 -8 11 8 5 18 -7 19 -6 5 11
-14 17 -13 17 10 10 22 -7 100 -8 107 -2 1 2 -2 9 -8 17 -8 13 -10 13 -20 0
-8 -12 -9 -11 -4 6 4 18 1 21 -22 19 -16 -1 -41 -5 -58 -8 -35 -8 -68 6 -40
16 10 4 14 3 9 -4 -4 -8 4 -9 27 -4 19 4 37 12 40 17 9 14 55 -7 73 -34 16
-21 18 -22 27 -5 6 9 14 15 20 12 5 -4 9 -2 9 4 0 6 7 8 16 4 13 -5 13 -7 2
-14 -10 -7 -9 -9 4 -9 11 0 15 -5 12 -15 -5 -11 -2 -13 10 -9 10 4 15 13 12
21 -3 8 -6 19 -6 24 0 5 -8 9 -17 9 -15 0 -16 2 -3 10 8 5 11 10 5 10 -5 0 -3
5 5 10 10 6 18 5 25 -2 7 -7 6 -12 -2 -15z m-1333 -246 c0 -8 10 -22 22 -33
15 -13 18 -14 10 -3 -10 14 -10 18 2 22 8 3 20 0 26 -8 6 -7 46 -30 88 -50 82
-39 115 -62 106 -76 -3 -5 1 -6 9 -3 8 3 31 -6 52 -20 21 -14 33 -26 26 -26
-20 0 -12 -16 10 -17 23 -2 61 -41 56 -57 -2 -6 -12 -10 -22 -8 -12 2 -15 -1
-9 -10 15 -23 13 -40 -2 -34 -10 4 -12 2 -7 -7 16 -25 10 -54 -12 -54 -11 0
-35 -6 -52 -14 -25 -10 -32 -18 -28 -34 3 -11 2 -14 -1 -7 -3 6 -13 12 -21 12
-12 0 -13 3 -4 14 9 11 6 13 -13 11 -13 -2 -33 -6 -44 -9 -15 -5 -24 -1 -31
13 -14 25 -14 42 0 19 5 -10 15 -18 21 -18 6 0 6 6 -2 15 -11 14 -10 14 13 6
20 -8 30 -7 41 4 17 17 30 20 21 5 -3 -5 -4 -10 -1 -10 3 0 8 5 11 10 7 12
-52 39 -90 42 -14 1 -25 5 -25 8 0 3 33 5 73 4 81 -2 93 2 76 22 -7 9 -21 12
-38 8 -21 -5 -23 -3 -11 6 12 10 10 11 -10 6 -14 -3 -33 -6 -44 -6 -12 0 -16
-5 -12 -15 3 -8 1 -15 -5 -15 -19 0 -22 32 -4 48 10 9 15 12 11 5 -4 -8 2 -11
21 -9 16 2 29 4 31 5 1 0 -6 9 -15 19 -10 11 -21 17 -25 15 -5 -2 -8 2 -8 9
-1 9 -5 7 -14 -4 -7 -10 -18 -18 -24 -18 -5 0 -8 -9 -5 -20 4 -13 0 -20 -9
-20 -8 0 -23 -6 -34 -14 -16 -12 -17 -17 -6 -28 11 -11 13 -11 10 1 -2 7 5 15
14 16 25 4 1 -30 -31 -45 -21 -10 -23 -9 -12 4 15 17 6 39 -12 30 -7 -3 -4 1
7 10 10 8 16 22 13 30 -4 9 -2 18 3 21 6 4 10 1 10 -4 0 -6 10 -11 23 -10 12
0 16 3 9 6 -6 2 -10 9 -6 14 3 5 -3 9 -13 9 -10 0 -27 12 -37 27 -11 14 -14
23 -8 19 6 -3 13 -2 17 3 8 13 -26 52 -38 44 -6 -3 -7 -2 -4 3 9 16 -10 38
-35 40 -13 0 -40 8 -62 17 -21 10 -42 17 -47 17 -5 0 -6 7 -2 16 4 12 2 15 -8
12 -8 -3 -13 -12 -11 -19 2 -9 -3 -7 -15 5 -12 13 -14 20 -6 23 7 2 10 10 7
17 -4 11 4 12 35 6 23 -4 41 -5 41 -2 0 2 8 -2 18 -9 9 -7 14 -9 10 -5 -8 10
9 36 23 36 5 0 9 -6 9 -13z m1801 -10 c-6 -8 -8 -16 -6 -19 8 -7 -16 -59 -37
-82 -11 -12 -14 -23 -9 -30 10 -12 -7 -39 -27 -44 -10 -2 -10 2 -1 20 7 13 13
31 14 41 3 30 -13 19 -25 -18 -14 -42 -64 -100 -78 -91 -6 3 -12 1 -14 -5 -6
-17 -86 -22 -148 -9 -119 25 -109 21 -72 36 33 14 72 6 72 -16 0 -5 12 2 27
16 25 23 27 23 51 8 13 -9 21 -11 17 -5 -4 7 6 16 25 23 23 8 28 13 18 19 -10
7 -10 9 2 9 8 0 22 -5 30 -10 13 -9 13 -11 0 -20 -8 -5 -24 -10 -34 -10 -14 0
-17 -3 -10 -10 14 -14 64 7 64 26 0 7 -12 20 -27 29 l-28 15 29 -6 c20 -5 27
-4 22 5 -5 7 1 11 16 12 16 1 13 3 -12 9 -19 5 -38 6 -42 4 -3 -2 -9 0 -13 6
-4 6 -16 5 -35 -5 -16 -8 -31 -11 -35 -6 -3 5 8 12 24 16 16 3 32 13 35 21 3
8 16 14 28 14 l23 -1 -25 -15 -25 -15 28 6 c19 4 26 2 22 -5 -3 -5 -2 -10 4
-10 5 0 12 4 16 10 3 5 13 6 22 3 12 -5 15 -2 10 9 -4 12 -1 14 14 11 20 -6
26 11 8 23 -14 8 39 44 56 37 7 -2 16 0 20 6 3 6 9 11 12 11 3 0 0 -6 -6 -13z
m-1901 -269 c0 -6 -3 -9 -6 -5 -3 3 -15 -3 -26 -13 -19 -17 -19 -20 -4 -35 9
-9 16 -20 16 -25 0 -4 9 -10 21 -13 18 -5 19 -8 7 -26 -8 -14 -20 -19 -33 -16
-11 3 -5 -2 13 -12 30 -16 44 -43 22 -43 -5 0 -10 6 -10 13 0 8 -3 7 -10 -3
-7 -11 -4 -17 10 -22 11 -4 20 -15 20 -25 0 -15 -2 -16 -10 -3 -8 13 -10 12
-10 -2 0 -10 7 -18 15 -18 9 0 15 9 15 24 0 15 7 26 19 29 17 4 18 2 11 -19
-20 -51 -39 -81 -53 -81 -9 0 -13 6 -10 14 3 7 9 10 14 7 5 -3 9 0 9 5 0 20
-19 11 -34 -16 -11 -21 -15 -23 -16 -10 0 11 -4 15 -12 11 -8 -5 -9 -2 -5 9 7
19 -3 22 -21 7 -6 -6 -10 -7 -7 -4 2 4 0 16 -6 27 -8 14 -8 18 0 13 7 -5 10 3
7 23 -4 40 2 39 16 -1 10 -28 12 -29 18 -12 4 10 4 24 -1 30 -5 6 -6 14 -2 17
3 4 0 13 -7 22 -7 8 -9 15 -4 15 5 0 3 4 -5 9 -18 11 -23 39 -9 47 6 4 14 1
18 -6 4 -7 10 -8 13 -3 4 6 -1 19 -9 29 -11 14 -17 15 -20 7 -3 -7 -10 -13
-16 -13 -6 0 -4 8 5 18 10 10 17 22 17 26 0 12 44 45 52 39 5 -2 8 -9 8 -15z
m1061 -9 c23 -16 29 -28 29 -58 0 -45 -7 -54 -31 -40 -15 7 -19 7 -17 -3 2 -9
-8 -12 -32 -10 -33 3 -34 2 -15 -12 11 -9 15 -16 8 -16 -7 0 -22 -10 -33 -22
-12 -13 -29 -23 -38 -23 -9 -1 -16 -7 -14 -14 2 -8 -3 -11 -12 -8 -10 4 -14 0
-11 -14 2 -10 0 -19 -6 -19 -5 0 -9 4 -9 10 0 5 -6 7 -14 4 -8 -3 -12 -13 -10
-22 3 -9 -2 -6 -10 8 -11 18 -15 20 -16 8 0 -9 -6 -15 -12 -14 -19 2 -20 8
-10 35 6 16 11 20 16 13 4 -7 12 -12 18 -12 7 0 7 4 -1 13 -6 8 -8 17 -4 20
10 11 45 8 38 -3 -3 -6 1 -7 9 -4 9 3 13 10 10 15 -3 5 0 9 6 9 6 0 8 5 5 10
-15 24 8 30 33 8 24 -20 25 -20 9 -2 -18 21 -18 22 5 38 12 9 17 16 10 16 -7
0 -11 4 -7 10 3 5 -6 15 -21 23 -17 9 -23 17 -15 21 6 4 11 2 11 -4 0 -7 6 -8
18 -2 9 5 23 7 31 4 10 -3 12 0 8 12 -6 16 4 20 48 17 20 -2 20 -1 1 14 -29
23 -9 18 25 -6z m767 -1 c9 -9 12 -9 12 1 0 11 3 11 15 1 8 -6 18 -9 24 -6 5
3 22 -5 39 -19 22 -18 32 -21 40 -13 8 8 12 8 12 1 0 -5 26 -18 58 -27 93 -28
173 -69 220 -113 7 -7 17 -13 22 -13 5 0 15 -6 22 -12 8 -7 25 -20 40 -28 52
-30 161 -120 154 -127 -3 -3 -11 -1 -18 3 -7 5 -17 9 -23 9 -5 1 -9 6 -8 12 2
7 -13 17 -32 24 -19 7 -32 16 -29 20 4 8 -20 25 -41 29 -5 1 -9 6 -8 10 1 4
-15 15 -37 24 -22 9 -40 20 -40 26 0 5 -6 10 -14 10 -7 0 -28 13 -47 29 -18
16 -48 32 -66 36 -18 3 -33 10 -33 15 0 6 -20 10 -44 10 -29 0 -52 7 -70 21
-15 12 -26 16 -26 9 0 -10 -3 -10 -14 -1 -10 8 -16 9 -21 1 -3 -5 -12 -10 -18
-10 -7 0 -7 4 2 9 12 8 9 11 -13 17 -16 4 -32 2 -39 -5 -6 -6 -27 -11 -46 -11
-28 0 -33 3 -21 11 11 7 7 9 -20 8 -19 -1 -55 -1 -80 0 -37 2 -41 4 -25 12 15
7 10 8 -22 5 -23 -2 -54 -13 -69 -25 -15 -12 -31 -21 -37 -21 -5 0 7 14 28 30
30 24 47 30 86 30 53 0 65 -2 62 -10 -1 -3 10 -6 25 -7 l27 -2 -24 10 c-30 12
-22 21 26 26 20 2 39 6 42 8 7 8 16 6 29 -7z m-1372 -154 c-5 -13 -2 -13 16 1
29 20 42 19 33 -2 -16 -38 -15 -77 2 -102 19 -28 20 -31 22 -74 1 -19 5 -26
14 -22 6 4 -1 -6 -18 -21 -16 -15 -23 -25 -14 -22 15 6 16 2 3 -44 -7 -28 -11
-55 -7 -60 3 -5 -8 -8 -23 -6 -22 2 -28 8 -26 22 2 10 -1 15 -6 12 -6 -3 -13
0 -15 6 -3 8 -6 6 -6 -4 -1 -22 -30 -24 -32 -3 -6 75 -4 80 31 75 13 -1 13 0
0 13 -8 8 -35 17 -60 21 -37 5 -42 4 -25 -6 37 -21 60 -68 34 -68 -5 0 -7 5
-3 11 4 8 1 8 -13 1 -16 -9 -25 -6 -45 13 -21 20 -27 21 -32 9 -4 -9 3 -18 18
-24 33 -12 39 -26 21 -44 -10 -9 -11 -17 -5 -21 6 -4 8 -10 5 -15 -3 -5 6 -12
20 -16 14 -3 25 -10 25 -15 0 -5 7 -9 17 -9 9 0 14 -3 10 -6 -3 -4 -19 -2 -36
4 -33 12 -46 5 -30 -14 12 -15 3 -37 -12 -28 -6 3 -8 13 -4 22 3 9 3 13 -1 10
-4 -4 -16 -1 -28 7 -11 8 -32 15 -46 15 -22 1 -23 2 -9 13 23 17 4 42 -39 51
-40 9 -49 23 -28 44 10 11 16 12 16 4 0 -7 7 -12 16 -12 13 0 14 3 4 15 -6 8
-8 20 -4 26 5 8 3 9 -6 4 -8 -5 -11 -3 -8 6 3 8 10 14 16 14 5 0 14 3 18 8 4
4 -1 7 -11 7 -10 0 -16 3 -13 6 4 3 0 17 -8 32 -12 24 -12 27 2 30 8 2 27 -4
42 -14 l27 -17 -27 30 c-35 37 -38 59 -5 42 12 -7 26 -17 30 -23 6 -7 7 -4 3
6 -3 10 0 20 6 24 7 4 8 3 4 -4 -4 -7 -1 -12 8 -12 9 0 16 -5 16 -11 0 -5 5
-7 11 -4 7 5 4 15 -6 32 -16 24 -16 27 3 52 10 14 28 27 38 29 11 2 15 0 8 -5
-16 -12 -24 -42 -14 -48 6 -4 10 -13 10 -22 0 -11 -5 -9 -20 8 -19 22 -21 22
-18 4 5 -29 45 -46 77 -32 25 12 25 12 3 15 -12 2 -22 7 -22 12 0 5 7 7 15 4
21 -8 20 25 -1 41 -15 10 -15 12 -1 12 9 0 21 -14 27 -31 7 -17 16 -39 21 -48
6 -13 5 -18 -3 -19 -10 0 -10 -2 0 -6 10 -4 10 -8 1 -19 -8 -10 -8 -14 0 -15
20 -3 26 -4 37 -12 7 -4 14 0 18 8 3 9 -3 19 -15 26 -15 8 -18 14 -10 22 8 8
16 4 31 -13 28 -33 25 -11 -5 30 -14 19 -25 29 -25 22 0 -7 -8 -12 -17 -12
-13 0 -14 3 -5 12 7 7 12 21 11 33 -1 17 -2 17 -10 -5 -8 -23 -8 -22 -4 6 2
17 -1 36 -7 42 -5 5 -7 15 -4 21 11 17 49 -7 42 -25z m1848 -180 c-18 -14 -17
-15 6 -8 14 4 27 9 30 13 9 11 30 11 30 1 0 -5 3 -9 8 -8 4 0 18 -4 32 -9 22
-10 23 -12 7 -18 -14 -6 -15 -10 -6 -21 10 -12 8 -13 -14 -5 -18 7 -28 7 -33
0 -3 -6 -13 -8 -21 -5 -9 4 -11 2 -7 -6 5 -8 1 -9 -12 -4 -10 4 -15 4 -11 0 9
-10 -22 -44 -40 -44 -8 0 -12 -4 -9 -9 3 -4 -4 -17 -16 -27 -15 -13 -19 -14
-14 -4 4 9 2 8 -7 -2 -16 -20 -47 -24 -47 -7 0 5 -4 8 -9 4 -6 -3 -19 5 -30
17 -12 12 -21 18 -21 14 0 -5 -7 -2 -17 5 -13 11 -17 11 -20 2 -6 -18 -23 -16
-23 2 0 8 6 14 13 13 6 -2 11 4 9 12 -2 13 0 12 10 -1 15 -18 66 -31 74 -18 3
5 0 9 -6 9 -6 0 -8 5 -5 10 9 15 35 12 29 -4 -7 -19 22 -27 54 -14 15 6 30 11
35 10 12 -3 8 5 -10 24 -16 16 -16 16 6 9 20 -6 23 -4 18 9 -4 10 -3 15 1 13
4 -3 13 1 20 9 10 11 10 14 -1 14 -8 0 -27 6 -42 14 -29 15 -20 22 29 24 26 1
27 0 10 -14z m-2350 -601 c-13 -9 -14 -13 -3 -13 8 0 23 7 33 15 21 16 126 21
126 7 0 -17 161 -83 193 -78 8 1 23 8 33 16 11 9 15 10 10 3 -15 -25 13 -12
47 22 30 30 35 32 40 16 3 -12 -1 -18 -11 -17 -8 0 -17 -5 -20 -13 -3 -9 1
-11 17 -6 26 8 28 -9 4 -25 -17 -11 -17 -11 0 -6 15 5 17 2 12 -13 -3 -11 1
-36 9 -56 14 -33 14 -37 -3 -54 -19 -19 -51 -24 -51 -8 0 5 6 7 14 4 8 -3 22
4 33 15 13 16 14 20 3 16 -8 -3 -23 -1 -34 4 -15 8 -16 12 -5 19 7 4 10 11 6
15 -4 4 -12 3 -19 -4 -8 -8 -16 -5 -30 11 l-20 22 15 -23 c8 -13 25 -31 37
-39 16 -11 19 -18 10 -23 -18 -11 -52 0 -46 15 3 8 -1 16 -9 19 -9 3 -12 0 -8
-10 8 -21 -9 -17 -47 11 -18 13 -37 22 -41 19 -11 -6 -89 26 -89 37 0 5 -5 9
-11 9 -8 0 -8 -5 1 -15 10 -13 9 -15 -10 -15 -22 0 -23 -1 -5 -20 10 -11 27
-20 37 -20 15 0 17 -2 6 -14 -11 -11 -15 -11 -26 3 -11 14 -12 13 -6 -9 6 -24
6 -24 -12 -7 -15 14 -16 19 -6 26 11 7 11 9 -2 14 -9 4 -16 13 -16 20 0 8 -9
22 -20 32 -11 10 -20 26 -20 37 0 11 -7 18 -20 18 -11 0 -20 5 -20 10 0 6 -5
10 -11 10 -5 0 -8 -4 -4 -9 3 -5 -1 -16 -10 -24 -13 -13 -13 -16 0 -27 8 -7
15 -18 15 -24 0 -15 70 -96 83 -96 5 0 4 7 -3 15 -8 9 -8 15 -2 15 6 0 19 -11
30 -25 12 -15 22 -21 24 -13 3 7 10 8 17 4 11 -7 11 -10 0 -18 -11 -7 -9 -8 6
-6 11 1 31 -4 45 -12 23 -12 24 -12 11 4 -10 12 -1 10 36 -9 28 -14 60 -25 71
-25 11 0 27 -11 36 -25 9 -14 22 -25 28 -25 7 0 3 7 -8 16 -15 13 -13 12 10
-1 26 -16 28 -16 23 -1 -7 18 8 22 18 6 5 -8 11 -8 19 -1 8 7 17 3 30 -14 10
-14 22 -23 26 -20 3 2 7 -2 7 -9 0 -12 -7 -11 -41 1 -64 23 -79 24 -72 8 4
-12 0 -11 -22 2 -15 10 -36 26 -46 35 -10 10 -23 15 -27 12 -14 -8 -59 8 -52
19 3 6 1 7 -5 3 -6 -4 -25 0 -42 9 -27 14 -30 14 -30 0 0 -9 9 -15 26 -15 15
0 23 -4 19 -11 -14 -22 -76 -2 -107 35 -16 20 -34 36 -39 36 -6 0 -8 -4 -5 -9
3 -5 -2 -15 -11 -22 -15 -12 -16 -12 -11 8 4 14 1 24 -9 27 -8 3 -12 2 -9 -2
2 -4 -9 -15 -25 -25 -17 -9 -27 -12 -24 -7 5 9 -3 12 -25 12 -3 0 -13 8 -23
18 -16 16 -15 17 20 18 23 1 41 -4 50 -16 13 -15 13 -15 3 6 -10 21 -9 22 17
17 15 -3 22 -2 15 1 -6 3 -10 10 -7 14 3 5 0 12 -6 16 -8 4 -9 3 -5 -4 8 -13
3 -14 -61 -17 -41 -2 -51 5 -59 43 -4 20 23 14 58 -15 l33 -28 -33 38 c-18 21
-30 42 -27 47 3 5 -4 7 -15 5 -24 -5 -25 3 -3 34 9 14 11 21 5 17 -15 -9 -15
-4 -1 27 6 13 18 24 26 24 13 0 12 -3 -3 -14z m106 -268 c7 -8 16 -12 21 -9 5
3 9 -2 9 -11 0 -10 -5 -13 -12 -9 -7 4 -5 -2 5 -13 14 -16 15 -22 5 -26 -9 -4
-7 -6 4 -6 9 -1 19 -5 22 -10 3 -4 -7 -6 -22 -3 -24 5 -26 4 -13 -11 7 -10 19
-17 26 -17 6 0 12 -6 12 -13 0 -7 -8 -13 -18 -13 -10 0 -15 4 -13 8 3 4 -3 8
-13 9 -11 0 -13 2 -5 6 10 4 9 9 -4 24 -19 21 -40 26 -28 7 5 -8 2 -9 -9 -5
-9 3 -19 1 -23 -5 -4 -6 -3 -8 4 -4 6 3 17 -1 24 -9 29 -35 46 -51 77 -67 17
-10 34 -25 38 -35 4 -10 13 -24 21 -32 7 -7 11 -20 8 -27 -3 -8 0 -11 10 -7
12 4 12 8 2 21 -11 13 -10 14 9 4 29 -16 38 -32 18 -32 -9 0 -23 -7 -31 -15
-14 -13 -13 -15 3 -15 11 0 14 -3 7 -8 -6 -4 -10 -15 -8 -24 1 -10 -4 -18 -13
-18 -21 0 -53 19 -53 32 0 7 5 6 15 -2 8 -7 15 -10 15 -7 0 11 -85 91 -93 89
-5 -1 -6 2 -3 7 3 5 -1 11 -9 15 -8 3 -15 11 -15 17 0 8 5 7 17 -2 15 -13 15
-11 -1 21 l-17 35 20 -25 c11 -14 21 -21 21 -16 0 5 7 3 16 -5 13 -10 17 -10
24 2 7 10 3 16 -13 22 -12 5 -24 8 -26 7 -2 -1 -8 5 -13 14 -5 9 -13 14 -19
11 -8 -6 -13 8 -10 28 0 4 -6 7 -15 7 -8 0 -12 -4 -9 -10 10 -17 14 -51 5 -45
-4 3 -11 22 -15 43 -3 20 -18 51 -32 67 l-26 30 18 -30 c15 -24 15 -27 3 -17
-12 9 -17 10 -20 1 -2 -7 -9 -5 -18 7 -14 16 -13 17 3 11 9 -3 17 -2 17 3 0 6
-8 10 -17 11 -14 0 -12 3 5 10 16 6 34 4 57 -5 18 -8 37 -11 41 -8 5 4 3 -1
-4 -10 -11 -14 -10 -16 7 -11 16 4 18 9 11 29 -8 19 -6 24 7 24 14 0 14 2 -3
15 -10 8 -14 15 -8 15 6 0 17 -7 24 -15z m1929 -11 c5 4 12 2 16 -4 4 -6 11
-8 16 -5 5 4 9 3 9 -2 0 -4 15 -9 33 -10 25 -2 29 0 17 8 -13 10 -13 10 0 6
53 -17 109 -43 136 -63 17 -13 34 -20 38 -17 3 4 6 1 6 -5 0 -7 8 -12 19 -12
12 0 20 -9 23 -23 4 -21 2 -22 -18 -13 -12 6 -21 13 -19 17 2 3 -2 6 -10 6
-30 0 -13 -16 40 -38 30 -12 55 -25 55 -29 0 -3 9 -6 20 -7 11 -1 20 4 20 13
0 20 18 17 32 -6 7 -11 20 -20 28 -20 13 0 13 -1 0 -10 -20 -13 -50 -13 -50 1
0 5 5 7 10 4 11 -7 12 -3 4 18 -5 13 -8 13 -24 -3 -20 -20 -82 -20 -88 0 -2 5
-8 10 -13 10 -6 0 -7 -4 -4 -10 9 -15 -9 -12 -31 6 -18 15 -18 15 5 8 17 -4
22 -3 19 7 -3 8 -9 14 -15 14 -5 0 -17 8 -27 18 -10 9 -14 17 -10 17 3 0 1 6
-5 14 -19 23 -99 56 -117 49 -11 -4 -15 -2 -11 4 4 7 -2 11 -16 11 -63 2 -102
11 -114 28 -17 24 -17 39 2 24 8 -6 19 -9 24 -6z m1181 -186 c19 11 21 11 18
-5 -2 -10 2 -17 8 -16 7 1 11 -5 10 -14 0 -9 10 -23 24 -30 18 -9 20 -13 8
-13 -10 0 -18 -4 -18 -10 0 -14 17 -12 27 3 8 12 9 17 12 37 0 6 8 10 17 10 9
0 12 -5 8 -12 -6 -10 -4 -10 7 0 18 17 34 15 20 -2 -10 -12 -8 -13 8 -9 12 3
18 10 14 16 -3 5 -1 7 5 3 6 -3 13 2 15 11 4 14 5 13 6 -4 1 -23 -53 -58 -72
-46 -5 3 -7 1 -3 -5 3 -5 0 -13 -6 -15 -10 -4 -10 -8 1 -15 12 -9 12 -13 2
-26 -8 -9 -20 -16 -27 -16 -8 0 -14 -5 -14 -11 0 -11 37 -3 58 13 8 7 12 7 12
0 0 -22 -66 -37 -88 -20 -14 11 -15 10 -9 -7 7 -19 6 -19 -7 -2 -14 18 -16 18
-40 1 -15 -9 -29 -14 -33 -11 -3 4 2 9 11 13 24 9 49 61 33 68 -6 3 -3 4 9 1
14 -4 21 0 21 10 0 9 -6 14 -14 11 -8 -3 -11 -1 -8 4 3 6 1 10 -6 10 -8 0 -8
4 1 15 16 19 6 19 -25 -1 -31 -20 -50 -10 -27 15 18 19 37 18 25 -2 -4 -7 2
-5 13 3 29 22 30 24 13 17 -16 -5 -59 29 -59 48 0 5 6 0 14 -11 13 -16 18 -17
36 -6z"/>
<path d="M3441 1023 c-1 -8 -14 -13 -31 -13 -16 0 -30 -5 -30 -11 0 -6 -7 -8
-17 -5 -10 4 -14 4 -10 0 9 -9 -32 -66 -44 -58 -5 3 -2 12 6 21 9 8 14 18 11
21 -3 3 -14 -4 -23 -15 -18 -19 -42 -20 -54 0 -4 6 -18 6 -35 2 -16 -5 -36 -9
-45 -9 -9 -1 -22 -6 -30 -12 -13 -10 -54 -23 -86 -26 -7 -1 -10 -5 -7 -9 2 -5
11 -6 19 -2 8 3 2 -9 -15 -27 -16 -18 -28 -36 -25 -40 3 -5 -10 -7 -29 -6 -19
2 -37 -2 -39 -8 -3 -7 9 -11 32 -10 56 2 145 15 156 24 27 20 122 47 145 40
48 -13 130 -19 130 -10 0 6 5 10 11 10 6 0 9 -6 6 -14 -7 -17 43 -29 58 -15 7
7 3 8 -9 3 -16 -6 -18 -4 -13 9 3 9 2 17 -3 17 -6 0 -10 10 -10 23 -1 22 -1
22 -17 2 -15 -19 -15 -19 -9 8 5 19 3 26 -4 22 -6 -3 -23 -8 -38 -11 -19 -3
-23 -2 -12 5 8 5 17 8 21 6 3 -3 11 7 17 20 7 16 17 23 27 19 8 -3 12 -11 8
-18 -4 -6 1 -5 10 3 27 21 20 30 -22 28 -22 -1 -39 -4 -39 -7 1 -18 -4 -28
-19 -34 -10 -3 -25 -9 -33 -12 -8 -3 -4 4 9 15 13 12 20 21 15 21 -19 0 15 21
42 26 34 6 38 9 31 26 -4 10 -6 10 -6 1z"/>
</g>
</svg>
