<?xml version="1.0" standalone="no"?>
<!DOCTYPE svg PUBLIC "-//W3C//DTD SVG 20010904//EN"
 "http://www.w3.org/TR/2001/REC-SVG-20010904/DTD/svg10.dtd">
<svg version="1.0" xmlns="http://www.w3.org/2000/svg"
 width="500.000000pt" height="334.000000pt" viewBox="0 0 500.000000 334.000000"
 preserveAspectRatio="xMidYMid meet">
<metadata>
Created by potrace 1.16, written by Peter Selinger 2001-2019
</metadata>
<g transform="translate(0.000000,334.000000) scale(0.100000,-0.100000)"
fill="#000000" stroke="none">
<path d="M3540 3167 c0 -24 39 -36 122 -36 45 1 223 2 393 3 209 1 312 -1 317
-8 4 -6 8 3 8 19 0 20 -3 26 -9 17 -6 -11 -37 -13 -147 -8 -77 3 -257 6 -401
6 -174 0 -263 3 -263 10 0 5 -4 10 -10 10 -5 0 -10 -6 -10 -13z"/>
<path d="M1625 2945 c36 -8 64 -9 70 -4 23 22 311 2 326 -23 7 -10 9 -10 10 2
0 10 3 8 9 -5 8 -19 9 -19 9 -1 1 13 6 17 21 13 11 -3 20 -2 20 2 0 4 34 8 74
9 62 1 74 -2 69 -14 -4 -10 0 -12 11 -8 9 3 16 1 16 -6 0 -6 -3 -9 -7 -7 -5 3
-17 1 -28 -4 -17 -6 -17 -8 -2 -8 9 -1 17 -6 17 -12 0 -5 4 -8 9 -5 5 3 14 -8
21 -24 7 -16 17 -27 23 -23 6 4 8 -3 3 -21 -4 -15 -2 -26 4 -26 5 0 11 12 11
28 l1 27 7 -30 c4 -16 3 -31 -1 -33 -15 -7 -8 -22 11 -22 26 0 35 40 13 56
-11 8 -17 26 -17 52 0 33 -3 40 -17 39 -21 -1 -24 -13 -5 -20 7 -3 5 -6 -5 -6
-10 -1 -18 3 -18 8 0 5 -3 16 -6 24 -4 11 1 13 20 10 16 -3 26 -1 26 6 0 6 -5
11 -12 11 -23 0 7 18 37 23 17 2 -152 4 -375 5 -357 0 -398 -1 -345 -13z"/>
<path d="M4091 2936 c3 -3 71 -6 153 -7 81 -1 164 -6 184 -11 20 -5 48 -11 62
-12 53 -4 102 -19 107 -33 4 -10 9 -11 19 -2 7 6 23 8 35 4 12 -4 33 -9 48
-10 14 -2 35 -6 46 -9 29 -9 47 7 48 44 l2 33 -355 4 c-195 3 -353 2 -349 -1z"/>
<path d="M3538 2879 c18 -17 32 -35 32 -40 0 -20 -24 -59 -39 -63 -142 -36
-197 -52 -251 -72 -36 -13 -82 -26 -102 -30 -21 -3 -38 -11 -38 -16 0 -6 -8
-8 -19 -5 -10 2 -27 -3 -39 -12 -16 -13 -18 -21 -11 -39 5 -13 14 -20 20 -16
8 4 7 9 -2 15 -20 12 -2 24 39 24 24 0 36 4 34 13 -1 6 2 12 8 12 5 0 10 -7
10 -15 0 -8 -4 -15 -10 -15 -5 0 -10 -5 -10 -10 0 -10 43 -4 65 9 10 6 16 7
48 9 9 1 17 9 17 17 0 8 9 15 20 15 10 0 23 6 27 14 4 7 18 17 31 20 17 6 22
3 22 -11 0 -13 2 -15 9 -5 4 7 14 12 22 10 8 -2 13 3 11 10 -3 16 51 38 56 22
3 -7 10 -3 18 9 9 13 25 19 44 19 19 -1 37 6 46 18 9 10 12 13 9 6 -6 -11 -3
-11 14 0 12 7 21 17 21 22 0 4 7 3 15 -4 13 -11 15 -8 15 15 0 29 3 29 -75 9
-17 -4 -18 -4 -3 6 20 13 17 46 -5 42 -18 -3 -59 33 -49 42 3 3 -3 6 -13 6
-15 0 -13 -6 13 -31z"/>
<path d="M1350 2804 c-59 -18 -161 -25 -178 -12 -9 8 -11 7 -6 -6 3 -9 16 -16
27 -16 21 0 21 0 1 -14 -15 -11 -64 -16 -178 -19 -86 -3 -160 -7 -163 -11 -4
-3 10 -6 30 -6 l37 0 0 -45 0 -44 -57 -4 -58 -3 68 -2 c54 -2 67 1 67 13 0 17
16 20 24 6 4 -5 0 -12 -6 -14 -21 -9 14 -6 42 3 l25 8 -25 1 c-22 1 -23 3 -7
12 10 6 32 8 50 4 24 -5 28 -4 17 4 -12 9 -9 11 13 11 16 0 26 -4 23 -9 -3 -5
1 -12 9 -15 10 -4 19 2 25 18 9 24 40 44 40 26 0 -6 -7 -10 -15 -10 -8 0 -15
-5 -15 -10 0 -7 6 -7 20 0 11 6 20 15 20 20 0 5 16 14 35 21 19 7 35 19 35 26
0 7 5 14 10 14 20 3 25 4 37 12 6 4 19 4 29 0 12 -4 15 -3 10 6 -6 9 -1 12 15
10 13 -1 35 3 49 8 14 6 28 9 32 6 4 -2 5 3 2 11 -7 19 -24 19 -84 0z"/>
<path d="M2846 2805 c-12 -12 -14 -21 -7 -23 13 -4 15 -32 1 -32 -5 0 -14 8
-20 18 -11 16 -11 16 -6 0 5 -17 -7 -18 -166 -18 -177 0 -211 -5 -98 -14 36
-2 67 -5 70 -5 3 -1 5 -34 5 -74 0 -67 -2 -72 -22 -75 -17 -3 -21 0 -17 12 4
11 1 16 -10 16 -9 0 -16 -7 -16 -15 0 -12 -14 -15 -70 -15 -43 0 -70 4 -70 11
0 5 -5 7 -11 3 -8 -4 -7 0 1 15 6 12 8 31 5 41 -4 12 -2 20 4 20 6 0 11 -7 11
-15 0 -8 5 -15 10 -15 6 0 10 5 10 10 0 6 5 10 11 10 6 0 8 -9 4 -21 -5 -15
-2 -22 14 -26 12 -3 21 -9 21 -14 0 -5 9 -9 21 -9 20 0 89 66 89 85 0 6 -5 3
-11 -5 -8 -12 -10 -10 -7 11 3 19 0 25 -14 26 -14 1 -19 -8 -24 -37 -4 -22
-11 -37 -16 -34 -6 4 -7 20 -4 36 5 28 4 29 -11 17 -15 -12 -16 -12 -10 3 4
13 2 15 -10 11 -12 -5 -15 -2 -10 10 4 10 2 17 -4 17 -7 0 -9 -10 -5 -25 6
-25 -7 -35 -19 -15 -4 6 -11 8 -16 4 -5 -3 -16 0 -24 6 -12 10 -15 9 -15 -6 0
-16 -2 -17 -10 -4 -8 13 -11 13 -19 1 -12 -19 -41 -6 -48 20 -4 16 -8 17 -14
7 -7 -10 -9 -10 -9 0 0 6 -11 12 -25 12 -19 0 -25 -5 -23 -16 2 -10 -3 -19
-11 -22 -8 -2 -11 0 -8 6 4 5 0 15 -8 22 -9 7 -16 11 -18 9 -27 -47 -28 -50
-14 -63 7 -8 24 -13 38 -11 13 1 16 0 7 -2 -10 -2 -18 -9 -18 -15 0 -5 -7 -8
-15 -4 -8 3 -14 0 -12 -7 4 -19 26 -39 37 -32 5 3 10 2 10 -3 0 -5 -17 -10
-37 -11 -21 0 -47 -3 -58 -5 -11 -3 -24 -5 -30 -6 -15 -2 77 -32 97 -31 10 0
21 -5 24 -11 4 -7 9 -6 15 3 6 10 10 9 15 -6 5 -11 14 -26 21 -33 11 -11 13
-11 13 1 0 21 40 9 41 -12 0 -12 2 -11 9 4 l9 20 0 -20 c1 -12 4 -16 9 -9 4 6
21 10 37 9 17 -1 33 3 38 9 5 7 13 4 23 -9 16 -20 16 -20 10 0 -5 17 -1 21 23
23 21 2 31 -3 34 -15 4 -15 5 -14 6 3 0 11 7 21 14 22 40 4 80 13 95 20 9 5
53 10 97 11 44 1 86 7 95 11 19 12 14 12 -90 11 -47 -1 -80 2 -73 6 7 5 40 8
73 7 56 -2 60 -1 43 13 -15 12 -16 14 -1 9 9 -2 19 2 22 10 3 9 1 12 -4 9 -6
-3 -10 2 -10 12 -1 14 -6 12 -25 -12 -18 -21 -25 -25 -25 -14 0 20 41 49 68
49 10 0 19 7 19 15 0 8 -4 15 -8 15 -4 0 -1 12 7 28 7 15 14 32 14 39 0 7 8
17 18 22 9 6 12 11 5 11 -6 0 -13 8 -15 17 -3 15 -5 15 -22 -2z"/>
<path d="M4785 2473 c2 -10 4 -21 4 -24 1 -4 19 -9 42 -13 35 -6 39 -9 29 -21
-10 -12 -10 -15 1 -15 8 0 7 -4 -5 -13 -16 -12 -16 -13 4 -13 12 0 20 6 19 16
-3 29 1 41 10 35 14 -8 11 -187 -3 -204 -8 -11 -8 -13 1 -8 9 6 12 -2 11 -28
l-1 -36 -51 1 c-28 1 -70 1 -94 1 -43 -1 -43 -2 -42 -33 1 -18 2 -63 1 -100
l-1 -68 -54 0 c-34 0 -56 5 -59 13 -4 10 -6 10 -6 0 -1 -7 -9 -14 -18 -14 -10
-1 9 -5 43 -9 37 -4 95 -2 145 6 73 11 76 12 22 9 l-63 -5 4 86 c2 47 6 88 9
90 3 3 42 8 87 11 l81 6 -3 -97 c-2 -53 0 -96 5 -96 4 0 7 6 7 14 0 8 6 17 13
19 10 4 10 6 0 6 -9 1 -13 21 -13 66 0 62 1 65 19 55 11 -5 23 -10 28 -10 4 1
-4 8 -19 16 -29 15 -37 34 -15 34 9 0 9 2 0 8 -7 5 -12 37 -12 90 l0 83 44 -7
c31 -4 45 -3 45 5 0 6 -19 11 -45 11 l-45 0 0 55 c0 53 1 55 28 56 18 1 12 4
-18 9 -24 4 -61 5 -82 3 -30 -4 -38 -1 -38 11 0 9 -4 16 -9 16 -5 0 -8 -8 -6
-17z"/>
<path d="M970 2429 c0 -4 6 -10 13 -12 6 -3 -1 -6 -16 -6 -16 -1 -37 4 -47 9
-13 7 -21 7 -25 0 -3 -5 0 -10 7 -10 10 0 10 -2 -1 -9 -9 -6 7 -8 43 -5 32 2
66 -1 75 -7 14 -9 14 -10 -2 -5 -25 8 -68 -4 -61 -16 4 -6 -4 -5 -16 2 -12 6
-24 9 -27 6 -3 -3 -15 0 -26 6 -17 9 -19 8 -13 -7 4 -13 2 -16 -9 -11 -8 3
-15 1 -15 -3 0 -15 32 -22 45 -11 7 6 25 8 39 4 26 -6 36 -22 14 -21 -7 0 -56
-1 -108 -3 -65 -3 -79 -5 -44 -7 l51 -4 7 -52 c3 -29 6 -73 6 -99 0 -39 3 -48
18 -48 14 0 15 2 2 10 -10 6 -11 10 -2 10 14 0 16 48 2 84 -17 46 6 49 338 50
166 0 302 3 302 6 0 3 18 6 40 7 22 2 40 -1 40 -6 0 -5 9 -7 21 -4 12 4 25 0
30 -8 7 -11 9 -11 9 3 0 21 37 13 43 -11 3 -9 5 18 6 59 1 86 -8 111 -33 91
-17 -15 -22 -36 -6 -26 6 3 10 2 10 -3 0 -11 -45 -32 -68 -32 -10 0 -23 5 -28
10 -6 6 -44 12 -85 14 -65 3 -94 8 -121 23 -4 2 -5 -3 -2 -11 5 -13 1 -14 -28
-5 -48 15 -78 19 -78 8 0 -11 -51 -9 -66 3 -7 5 -14 3 -17 -4 -3 -9 7 -14 31
-16 20 -1 40 -8 44 -15 5 -8 8 -7 8 5 0 14 6 17 33 12 17 -3 46 -7 63 -9 17
-1 40 -7 50 -13 11 -5 40 -9 67 -8 26 0 47 -3 47 -7 0 -4 -87 -7 -192 -5 -132
2 -192 6 -191 14 1 6 -4 11 -12 11 -8 0 -12 -4 -10 -8 6 -9 -20 -19 -47 -19
-14 0 -18 5 -14 15 3 8 1 15 -5 15 -6 0 -7 5 -4 10 3 6 17 10 30 10 25 0 46
20 23 21 -7 0 -2 5 12 10 14 6 40 8 58 5 22 -3 30 -1 26 6 -5 7 5 9 32 4 28
-5 35 -4 24 3 -20 14 -153 14 -145 1 3 -5 1 -10 -4 -10 -6 0 -11 4 -11 10 0 5
-29 8 -65 7 -36 -1 -65 -5 -65 -8z"/>
<path d="M3030 2271 c0 -16 93 -33 123 -22 17 7 28 7 32 1 8 -13 76 -13 109 0
14 5 26 6 26 2 0 -12 80 -11 80 2 1 6 7 0 15 -14 11 -19 14 -21 15 -7 0 18 25
23 35 7 4 -6 12 -7 18 -3 21 13 48 11 43 -3 -3 -7 -1 -16 4 -19 4 -3 10 -1 12
5 2 6 8 6 18 0 12 -8 13 -12 2 -19 -9 -5 -3 -8 17 -7 24 1 28 3 17 11 -11 9
-11 12 0 23 12 10 14 10 14 -3 0 -10 5 -13 12 -9 7 4 8 3 4 -4 -4 -7 -2 -20 4
-29 8 -14 9 -5 8 37 l-3 55 -302 3 c-179 1 -303 -1 -303 -7z"/>
<path d="M2735 2220 c-3 -5 -11 -7 -17 -4 -7 4 -8 2 -4 -4 4 -7 2 -12 -3 -12
-6 0 -11 -3 -11 -8 0 -4 17 -6 39 -4 21 2 42 -1 45 -7 4 -6 19 -12 34 -12 17
-1 21 -3 10 -6 -15 -4 -18 -16 -18 -79 0 -70 1 -74 23 -74 20 1 21 2 5 14 -18
13 -24 36 -10 37 73 5 85 4 98 -9 8 -8 18 -11 21 -8 4 4 0 13 -8 21 -11 11
-39 17 -110 24 -10 1 -6 35 5 42 5 4 23 4 40 1 17 -3 42 -6 56 -6 14 0 28 -5
32 -10 11 -16 20 0 13 23 -4 15 -15 21 -36 21 -16 0 -29 4 -29 9 0 21 -164 69
-175 51z"/>
<path d="M4178 2123 c6 -2 9 -9 6 -15 -9 -14 -11 -158 -2 -158 3 0 8 5 10 12
2 6 15 12 29 14 13 1 27 3 31 3 4 1 5 8 2 16 -4 8 -1 15 5 15 6 0 11 -4 11
-10 0 -15 21 -12 42 7 10 9 18 11 18 5 0 -6 6 -9 13 -6 15 5 69 -40 60 -50 -4
-3 1 -6 11 -6 9 0 14 5 11 10 -3 6 -1 10 4 10 6 0 11 -4 11 -10 0 -5 17 -10
38 -10 29 1 33 3 20 11 -10 5 -15 17 -12 27 2 9 -1 7 -7 -5 -13 -26 -34 -32
-25 -7 3 8 2 12 -4 9 -6 -3 -10 -1 -10 4 0 6 5 11 10 11 6 0 10 5 10 11 0 8
-4 8 -15 -1 -8 -6 -20 -8 -26 -4 -9 5 -10 2 -5 -12 6 -15 4 -16 -5 -7 -17 16
-4 44 17 36 14 -5 14 -3 -2 15 -19 23 -30 29 -19 12 3 -5 1 -10 -5 -10 -6 0
-13 6 -16 14 -3 8 -12 12 -19 9 -11 -4 -12 1 -5 25 9 33 5 42 -18 42 -12 0
-12 -3 -2 -15 9 -11 9 -15 1 -15 -7 0 -10 -4 -7 -8 3 -5 -8 -6 -24 -4 -31 4
-32 27 -2 35 10 3 -19 5 -63 5 -44 0 -74 -2 -67 -5z"/>
<path d="M847 2094 c-3 -4 -28 -8 -54 -11 -26 -2 -51 -7 -56 -12 -4 -4 -41 -6
-82 -3 -44 3 -80 0 -87 -6 -7 -5 -49 -15 -93 -21 -190 -26 -225 -34 -225 -48
0 -10 6 -12 21 -8 15 5 19 4 15 -4 -4 -6 -2 -11 3 -11 6 0 11 5 11 10 0 6 22
10 49 10 28 0 52 4 56 9 3 6 32 8 65 6 33 -3 60 -1 60 4 0 5 -5 11 -12 13 -7
3 48 4 121 4 116 -1 134 1 142 17 6 9 21 17 34 17 14 0 25 5 25 12 0 6 6 4 13
-5 11 -16 12 -15 12 8 0 25 -6 31 -18 19z"/>
<path d="M3507 2083 c-4 -3 -7 -20 -8 -37 0 -26 -2 -28 -9 -11 -7 16 -9 16 -9
4 -1 -9 6 -30 14 -45 14 -28 14 -29 -8 -35 -13 -4 -64 -7 -114 -8 -80 -2 -91
0 -89 15 0 9 -5 19 -13 22 -9 3 -11 -1 -6 -17 4 -15 2 -21 -8 -21 -9 0 -18 6
-20 13 -4 10 -6 10 -6 0 -1 -16 -151 -18 -151 -3 0 6 -9 6 -25 0 -14 -5 -44
-9 -65 -8 -22 1 -41 -1 -43 -3 -2 -2 0 -20 4 -39 3 -19 7 -27 8 -18 2 31 13
32 333 29 96 -1 175 2 186 8 10 5 51 11 91 12 92 3 104 19 14 20 -37 1 -59 3
-48 6 11 3 24 9 29 14 5 4 16 4 25 0 9 -5 27 -4 41 1 20 7 22 11 10 18 -21 14
-30 12 -30 -5 0 -13 -4 -14 -20 -5 -11 6 -20 8 -20 5 0 -4 -7 1 -16 10 -23 23
-9 31 21 11 21 -14 25 -14 25 -2 0 9 7 12 19 9 11 -3 21 2 24 11 7 17 2 18
-66 19 -25 0 -42 -6 -52 -19 -14 -18 -15 -18 -11 5 1 14 8 27 14 29 7 2 10 8
6 13 -6 11 -18 12 -27 2z"/>
<path d="M1001 1800 c3 -85 6 -156 7 -157 1 -2 9 -3 17 -3 11 0 12 5 5 26 -13
34 -13 37 8 30 16 -6 16 -5 0 8 -10 7 -18 20 -18 29 0 13 7 15 33 10 17 -3 35
-11 39 -17 5 -8 8 -7 8 2 0 19 28 14 33 -5 3 -13 5 -14 6 -3 1 11 12 15 43 14
36 -1 42 -5 40 -20 -3 -15 -1 -16 11 -5 12 9 21 10 36 1 12 -6 21 -7 21 -2 0
5 11 10 25 10 19 0 23 -4 15 -13 -8 -9 -6 -14 5 -19 9 -3 15 0 15 9 0 7 5 17
12 21 8 5 9 0 6 -14 -7 -26 -5 -27 18 -5 16 16 16 16 9 -7 -7 -22 -6 -23 9
-11 9 7 16 20 16 27 0 17 10 18 30 3 13 -10 13 -10 0 -6 -10 3 -16 -2 -16 -12
0 -11 7 -17 21 -16 11 1 23 -5 27 -14 4 -10 7 -3 7 19 1 32 4 35 31 37 26 2
30 -1 31 -25 1 -20 2 -22 6 -7 10 45 12 47 27 32 12 -11 43 -13 150 -11 81 2
136 -1 136 -7 0 -5 -10 -9 -22 -9 -12 0 -18 -3 -14 -7 4 -5 24 -8 44 -8 29 0
41 6 53 26 15 22 22 25 70 23 67 -2 130 -13 147 -27 8 -6 12 -6 12 3 0 17 89
7 101 -11 7 -11 9 -10 9 5 0 13 5 16 18 11 9 -4 23 -8 30 -8 6 0 12 -4 12 -8
0 -5 7 -6 15 -3 8 3 22 -1 30 -10 17 -17 34 -21 36 -8 1 9 6 31 15 60 6 20 3
22 -32 22 -22 1 -120 3 -219 5 -99 2 -378 5 -620 5 -242 1 -454 4 -472 7 -23
4 -33 11 -35 27 -2 11 -9 20 -16 19 -7 -2 -12 8 -12 22 0 20 5 25 25 25 14 0
25 5 25 10 0 6 -11 10 -25 10 -16 0 -25 6 -25 16 0 8 5 12 10 9 6 -3 10 0 11
7 0 7 4 5 8 -6 6 -16 9 -17 22 -3 13 12 31 13 110 6 52 -5 113 -11 136 -15 40
-6 40 -7 23 -24 -12 -12 -27 -17 -42 -13 -38 10 -16 -4 25 -15 21 -6 35 -6 32
-1 -4 5 1 9 11 9 9 0 31 8 48 19 41 25 81 37 72 22 -4 -6 -16 -11 -26 -11 -10
0 -21 -4 -25 -9 -3 -6 7 -8 22 -5 72 12 84 16 79 29 -3 9 2 12 15 10 10 -2 19
1 19 6 0 6 5 7 11 4 5 -4 38 -3 72 1 58 7 60 8 27 15 -31 6 -32 7 -7 8 15 0
27 4 27 9 0 4 -159 7 -353 7 l-352 0 6 -155z"/>
<path d="M4616 1875 c-3 -9 0 -15 10 -15 9 0 12 5 8 12 -4 7 -3 8 5 4 14 -9 5
-26 -14 -26 -16 0 -28 -27 -15 -35 16 -10 11 -28 -5 -21 -10 4 -15 -1 -15 -15
0 -11 4 -18 8 -15 4 2 8 -4 8 -14 0 -10 -4 -16 -8 -14 -4 3 -8 0 -8 -5 0 -6
-7 -11 -16 -11 -8 0 -13 -3 -11 -7 3 -5 -17 -8 -44 -8 -35 0 -48 3 -45 12 4 9
-1 10 -19 3 -14 -5 -25 -6 -25 -2 0 10 -224 7 -275 -3 -22 -5 -57 -9 -77 -9
-28 0 -39 -5 -44 -18 -3 -10 -11 -19 -17 -19 -7 -1 -18 -2 -26 -3 -8 0 -16 -7
-19 -15 -3 -9 1 -11 17 -6 13 4 21 2 21 -5 0 -7 -15 -11 -37 -10 -21 1 -56 1
-78 0 l-40 -2 35 -9 c19 -5 46 -6 59 -3 19 4 22 2 17 -13 -5 -16 -5 -16 7 -2
10 13 51 18 75 10 1 -1 -2 -10 -8 -21 -7 -14 -7 -20 0 -20 5 0 10 5 10 10 0 6
5 10 11 10 6 0 8 -7 5 -16 -5 -14 -4 -15 9 -4 12 10 13 16 4 26 -9 11 -6 14
15 14 14 0 26 -6 26 -12 1 -8 6 -6 14 5 7 9 17 17 22 17 4 0 3 -5 -4 -12 -15
-15 -16 -38 -1 -38 5 0 8 4 4 9 -10 18 35 33 74 25 20 -4 48 -8 64 -10 15 -1
35 -8 44 -15 12 -10 14 -10 9 -1 -4 7 -2 12 8 12 8 0 17 -8 19 -17 4 -17 5
-17 6 0 1 17 21 25 21 7 0 -6 9 -6 26 0 33 13 37 13 31 -3 -4 -11 3 -11 41 -1
26 7 55 15 65 19 11 5 17 2 17 -6 0 -12 2 -12 9 -1 4 8 11 13 15 13 3 -1 7 -1
9 0 29 9 44 10 159 9 l77 0 4 -33 c3 -28 4 -27 5 10 l2 42 48 4 c26 2 7 4 -43
3 l-90 -1 -6 45 c-4 30 -7 35 -7 17 -2 -26 -3 -27 -18 -13 -20 20 -30 21 -14
1 10 -12 9 -16 -4 -21 -9 -3 -16 -11 -16 -16 0 -6 6 -8 13 -5 8 3 20 1 28 -4
10 -6 5 -9 -18 -9 -17 0 -33 6 -36 13 -4 10 -7 10 -18 0 -7 -7 -20 -13 -28
-13 -11 0 -10 4 5 15 18 15 18 15 -8 9 -16 -3 -28 -2 -28 4 0 14 37 22 74 16
l31 -4 -27 13 -28 13 32 12 c17 6 35 9 39 6 5 -3 9 0 9 5 0 15 -33 14 -48 -1
-9 -9 -12 -8 -12 4 0 9 -10 24 -22 32 l-22 16 24 1 c14 0 19 3 12 6 -21 8 -35
43 -23 57 7 9 6 19 -5 34 -18 26 -30 28 -38 7z"/>
<path d="M3160 1643 c0 -10 -29 -13 -110 -13 l-110 0 0 -25 c0 -14 -4 -25 -10
-25 -5 0 -10 -5 -10 -11 0 -5 4 -8 9 -5 9 6 20 -43 13 -63 -10 -29 -61 -41
-196 -43 -75 -2 -136 -7 -136 -12 0 -8 189 -3 323 10 56 5 67 9 63 23 -3 9 -1
23 5 31 8 12 9 11 4 -6 -7 -27 14 -45 49 -42 18 2 26 8 27 23 0 19 1 19 11 -2
10 -21 18 -23 89 -23 65 0 78 3 82 18 4 16 5 16 6 0 1 -15 11 -18 60 -18 32 0
79 3 105 6 l47 7 -5 43 c-5 52 0 57 13 12 l9 -33 1 34 c1 26 4 32 17 27 11 -4
15 -2 11 8 -4 10 -1 13 9 9 7 -3 14 -12 14 -21 0 -13 2 -13 14 3 8 11 20 16
29 12 9 -3 19 -2 23 4 3 6 11 3 19 -8 13 -17 14 -17 21 0 5 15 9 16 15 5 8
-11 10 -11 18 1 6 9 11 10 15 2 4 -6 12 -11 18 -11 6 0 9 3 5 6 -10 10 17 33
28 24 6 -5 10 1 10 16 l0 24 -280 1 c-166 0 -272 4 -260 9 11 5 14 9 7 9 -7 1
-23 -4 -34 -10 -16 -9 -23 -8 -29 2 -6 10 -9 11 -9 2z"/>
<path d="M4846 1488 l-8 -28 -146 0 c-114 0 -143 -3 -134 -12 15 -15 16 -128
1 -128 -5 0 -8 -4 -5 -8 2 -4 -32 -8 -77 -8 -45 0 -74 2 -64 4 9 2 17 8 17 13
0 5 8 9 18 9 13 0 14 2 3 9 -11 7 -11 9 0 14 11 4 11 6 1 6 -7 1 -10 6 -6 13
5 7 2 9 -9 5 -12 -4 -14 -2 -10 10 5 12 2 15 -8 11 -8 -3 -26 0 -39 7 -22 12
-22 13 -4 24 15 10 15 11 2 7 -10 -3 -20 -1 -23 4 -4 6 -13 10 -22 10 -14 0
-13 -3 3 -22 l19 -23 -26 23 c-21 18 -36 22 -77 21 -29 -1 -52 -6 -52 -11 0
-4 -8 -8 -17 -8 -15 0 -16 2 -3 10 17 11 -1 12 -160 14 -53 1 -98 -3 -102 -9
-5 -7 -8 -7 -8 0 0 6 -17 9 -40 7 -22 -2 -38 -7 -36 -11 2 -3 -7 -11 -20 -18
-13 -6 -24 -7 -24 -2 0 5 -10 14 -22 19 -20 8 -18 9 17 11 34 2 36 3 11 6 -22
4 -26 7 -15 14 8 5 10 9 4 9 -27 -1 -43 -28 -46 -78 -2 -42 1 -55 17 -68 16
-13 16 -15 2 -10 -11 3 -18 0 -18 -9 0 -7 9 -16 19 -20 31 -9 174 5 191 19 8
7 24 16 35 20 16 6 17 9 5 16 -10 6 -1 7 25 3 48 -7 58 -13 22 -13 -14 0 -29
-4 -32 -10 -3 -5 -15 -10 -25 -10 -20 0 -36 -17 -26 -27 10 -11 75 -13 81 -3
8 13 125 13 125 0 0 -5 -7 -10 -16 -10 -9 0 -12 -5 -8 -12 5 -8 2 -9 -12 -3
-39 16 -66 18 -75 4 -12 -19 -11 -42 1 -34 6 4 10 -6 9 -22 0 -25 -1 -26 -9
-8 -8 19 -9 19 -9 -2 -1 -14 5 -23 14 -23 8 0 15 5 15 11 0 6 9 8 20 4 15 -5
18 -3 14 9 -8 22 8 20 39 -4 14 -11 40 -20 60 -20 32 0 34 2 29 28 -4 26 -4
26 12 7 15 -19 15 -18 5 13 -6 17 -15 32 -20 32 -5 0 -9 5 -9 10 0 24 31 8 36
-19 4 -17 13 -32 20 -35 12 -5 12 0 -1 24 -8 16 -11 31 -6 34 5 3 12 -2 16
-12 12 -34 50 -82 64 -82 10 0 8 6 -7 21 -12 11 -20 24 -17 29 3 4 -2 11 -11
14 -8 3 -13 10 -10 15 4 5 0 12 -6 14 -7 3 6 6 30 6 36 1 44 -3 52 -24 5 -14
12 -25 16 -25 3 0 3 7 0 16 -4 12 0 15 17 12 14 -2 21 -9 19 -19 -1 -11 7 -19
23 -23 34 -9 32 -28 -2 -21 -24 5 -25 5 -10 -5 26 -17 50 -5 42 20 -4 11 -3
20 2 19 32 -6 52 3 50 21 -1 11 -6 20 -12 21 -5 0 -1 4 10 8 11 5 24 6 28 4 7
-4 5 -53 -2 -90 -1 -2 -13 -4 -28 -4 -16 -1 -4 -5 26 -10 30 -5 60 -7 65 -5 6
2 -1 5 -16 5 -28 1 -28 1 -28 75 0 41 4 86 10 101 7 17 7 24 0 20 -6 -3 -10 1
-10 9 0 9 5 16 11 16 6 0 7 5 2 13 -22 35 -14 37 123 35 74 -1 136 1 140 4 3
4 4 19 2 35 l-4 28 -8 -27z"/>
<path d="M1001 1478 c-1 -16 -17 -18 -178 -19 -98 -1 -170 -3 -160 -6 14 -4
16 -8 6 -19 -10 -12 -7 -12 17 1 28 14 29 14 36 -10 3 -13 5 -38 4 -55 -1 -18
3 -30 10 -30 7 0 10 8 7 19 -6 25 28 48 89 59 39 8 47 6 57 -10 10 -16 20 -18
64 -13 28 4 59 9 67 12 29 9 110 8 110 -2 0 -5 4 -4 8 3 5 7 25 11 48 10 22 0
49 4 61 10 30 16 237 16 227 0 -5 -8 -2 -9 12 -4 22 9 165 16 178 8 4 -2 2 -8
-5 -13 -11 -7 -10 -9 3 -9 12 0 15 -5 11 -17 -6 -16 -5 -16 11 -4 20 17 76 22
76 8 0 -6 3 -8 6 -5 3 4 0 17 -7 30 -12 22 -11 23 8 6 21 -20 38 -24 28 -8 -8
13 1 13 26 0 13 -8 19 -7 19 0 0 7 8 9 21 5 16 -6 20 -4 14 6 -6 11 -5 12 6 2
16 -16 33 -17 23 -1 -4 7 -3 8 4 4 6 -3 27 -7 47 -8 23 -1 35 -6 35 -16 0 -9
7 -13 20 -9 15 4 20 0 20 -14 0 -10 5 -19 11 -19 5 0 8 4 4 9 -3 5 -1 12 5 16
5 3 10 1 10 -4 0 -6 10 -11 23 -12 17 0 14 -5 -18 -20 l-40 -18 45 -2 c25 -1
56 -2 70 -3 14 -1 36 5 49 12 13 8 20 9 17 3 -4 -6 -1 -11 7 -11 13 0 13 6 1
45 -14 47 -12 49 21 36 12 -5 26 -4 34 3 11 8 13 8 7 -1 -4 -7 -3 -13 3 -13 5
0 13 5 16 11 4 6 14 8 22 5 8 -3 12 -2 8 3 -3 5 1 12 7 14 7 3 -23 6 -67 7
-44 1 -147 3 -230 5 -82 2 -347 4 -587 4 -407 1 -437 2 -441 19 -4 16 -5 16
-6 0z"/>
<path d="M1808 1058 l-3 -93 -120 0 c-108 0 -120 2 -119 18 1 9 -2 17 -7 17
-5 0 -9 -9 -9 -21 0 -17 -6 -20 -37 -19 -66 3 -64 5 -62 -60 1 -33 5 -57 8
-54 3 3 6 11 7 17 0 7 2 20 2 31 1 11 7 16 16 13 8 -3 17 1 20 10 5 11 19 14
60 11 30 -1 52 0 50 4 -3 4 8 7 23 7 86 -3 164 6 174 18 6 7 19 13 28 14 10 0
11 2 4 6 -7 2 -13 9 -13 14 0 6 5 7 10 4 6 -3 10 -1 10 4 0 6 -7 11 -16 11
-13 0 -14 3 -5 13 7 9 8 24 1 46 -5 20 -5 42 0 57 7 18 6 24 -5 24 -11 0 -15
-20 -17 -92z"/>
<path d="M3585 1131 c-2 -5 -14 -11 -25 -14 -11 -3 -18 -1 -14 4 3 5 2 9 -1 9
-13 0 -50 -24 -58 -37 -5 -7 -12 -11 -18 -8 -5 4 -12 -1 -15 -9 -3 -9 -12 -16
-20 -16 -9 0 -14 -11 -14 -27 0 -21 -3 -24 -9 -13 -6 8 -7 19 -4 25 4 5 2 6
-3 2 -5 -5 -9 -13 -9 -18 0 -5 -3 -8 -7 -6 -4 1 -15 -8 -23 -20 -18 -26 -35
-30 -35 -9 0 8 -4 17 -9 20 -5 4 -7 -3 -4 -14 5 -19 2 -21 -46 -17 -28 2 -49
1 -45 -2 3 -3 15 -7 27 -8 34 -3 361 -15 372 -14 6 1 30 4 55 9 42 6 45 9 48
40 2 19 -4 44 -12 57 l-16 24 -44 -19 c-24 -10 -46 -16 -49 -14 -3 3 -8 1 -11
-5 -7 -10 25 -7 44 4 6 3 10 2 10 -4 0 -5 -6 -14 -12 -18 -7 -4 -18 -17 -24
-28 -7 -13 -23 -21 -45 -23 -26 -2 -30 0 -19 8 9 6 11 10 3 10 -7 0 -18 -6
-25 -13 -13 -15 -48 -11 -48 5 0 6 -8 7 -17 3 -34 -14 -86 -18 -79 -6 4 6 16
11 26 11 10 0 25 7 34 15 8 9 17 11 21 6 3 -5 17 1 32 15 14 13 34 24 44 24
10 0 22 6 26 14 4 7 18 18 31 25 12 6 22 16 22 20 0 12 -28 22 -35 12z"/>
<path d="M2553 979 c-6 -6 -104 -12 -264 -14 -366 -6 -406 -7 -386 -12 11 -3
16 -11 13 -18 -3 -10 0 -12 11 -8 11 4 14 3 9 -5 -4 -7 0 -19 8 -28 14 -13 16
-47 16 -216 0 -111 2 -199 5 -196 3 2 6 77 6 166 1 120 5 162 14 166 19 7 26
-4 14 -25 -6 -11 -6 -19 0 -19 7 0 21 23 21 35 0 3 -10 14 -22 26 -14 13 -17
20 -8 17 8 -3 20 2 27 11 10 14 11 12 7 -9 -2 -14 -2 -20 2 -13 3 7 11 11 17
9 7 -1 9 -1 4 1 -13 8 3 22 18 16 11 -4 13 -1 9 11 -4 11 -2 15 7 12 34 -10
109 -15 109 -6 0 5 -24 11 -52 12 -30 2 -9 5 47 6 55 1 141 5 190 8 50 3 97 6
105 5 36 -1 134 12 122 17 -10 3 -8 8 7 18 14 10 35 13 75 8 72 -9 75 -32 4
-26 -22 2 -88 -26 -88 -37 0 -5 -10 -11 -22 -14 -32 -8 -96 -32 -104 -39 -3
-4 4 -4 17 -1 15 4 20 3 15 -5 -11 -18 3 -14 26 8 23 21 44 27 33 10 -3 -6 1
-7 10 -4 9 4 13 9 10 12 -2 3 4 10 14 16 70 41 84 47 90 38 3 -6 18 -8 34 -5
20 4 27 11 27 29 0 24 2 24 98 25 l97 2 -65 9 c-80 12 -62 11 -203 4 -81 -5
-117 -3 -112 4 8 13 2 13 -12 -1z"/>
<path d="M17 731 c15 -16 25 -18 63 -11 25 5 73 9 108 9 52 0 62 -3 62 -17 1
-16 1 -16 13 0 9 11 18 14 27 8 7 -5 25 -4 39 1 28 11 80 6 126 -11 16 -6 38
-10 49 -8 12 1 27 -2 35 -7 10 -5 16 -4 19 3 2 6 10 8 18 5 8 -3 14 1 14 11 0
12 10 16 39 16 22 0 42 -5 44 -12 3 -8 6 -7 6 4 1 9 11 19 24 21 12 2 -141 5
-341 6 -357 1 -363 1 -345 -18z"/>
<path d="M2750 640 c0 -17 -6 -33 -12 -35 -7 -3 -138 -6 -291 -8 -230 -3 -281
-1 -293 10 -12 12 -17 12 -36 -1 -12 -9 -36 -16 -53 -17 -16 0 -23 -3 -15 -6
8 -3 28 -19 43 -35 15 -17 30 -28 33 -25 3 2 -2 12 -11 20 -21 22 -19 30 6 17
11 -6 32 -9 47 -5 15 3 51 1 81 -5 56 -10 77 -6 51 10 -13 8 -13 10 0 10 9 0
26 -7 39 -16 17 -12 26 -13 34 -5 8 8 6 11 -8 11 -17 0 -18 2 -5 10 20 13 60
13 60 0 0 -5 14 -10 31 -10 28 0 30 -2 18 -17 -10 -12 -5 -11 17 4 28 20 39
22 137 16 90 -5 108 -4 122 11 9 9 13 16 9 16 -5 0 -3 5 4 12 7 7 12 20 12 30
0 12 5 16 18 12 14 -5 14 -3 -2 10 -28 23 -36 20 -36 -14z"/>
<path d="M4300 602 c0 -5 -90 -10 -212 -10 -197 -1 -213 -2 -216 -19 -2 -14
-1 -15 6 -4 7 9 19 11 43 5 19 -4 38 -7 43 -6 4 2 13 -1 20 -5 6 -4 48 -8 93
-8 46 0 83 -3 83 -6 0 -3 14 -5 30 -4 17 1 30 -3 30 -8 0 -6 8 -3 18 6 11 10
26 14 41 10 18 -5 22 -3 16 7 -5 9 -4 11 4 6 6 -4 29 -8 52 -8 32 0 42 -5 49
-22 7 -17 9 -18 9 -3 1 14 8 17 36 15 27 -2 32 -5 23 -15 -22 -26 4 -12 35 20
l31 32 -104 5 c-58 3 -111 9 -117 13 -7 5 -13 4 -13 -1z"/>
<path d="M2773 487 c-3 -5 -18 -7 -34 -5 -16 3 -29 2 -29 -2 0 -9 151 -42 158
-35 3 3 11 0 19 -6 10 -9 13 -8 13 4 0 13 12 15 77 12 42 -2 79 -9 83 -15 4
-6 25 -9 48 -8 30 2 42 8 46 22 3 12 10 16 20 13 9 -4 16 -2 16 3 0 6 11 10
25 10 14 0 25 4 25 9 0 4 -18 5 -40 1 -52 -10 -390 -10 -390 -1 0 11 -30 9
-37 -2z"/>
<path d="M203 456 c-4 -5 -2 -7 3 -4 5 3 18 2 29 -3 19 -7 19 -8 0 -8 -14 -1
-16 -4 -8 -12 8 -8 17 -8 31 0 10 6 22 7 26 4 3 -3 6 -1 6 6 0 7 4 10 8 7 19
-11 428 -21 517 -12 17 1 41 4 53 4 14 1 22 7 20 14 -5 15 -676 19 -685 4z"/>
<path d="M4913 356 c9 -7 17 -22 17 -33 0 -17 -7 -19 -67 -18 -50 0 -67 3 -65
13 2 10 -2 10 -18 2 -14 -7 -127 -11 -341 -10 -176 0 -326 1 -332 3 -7 1 -10
-5 -8 -13 2 -8 6 -30 9 -47 l4 -33 19 23 c16 19 18 20 19 4 0 -10 5 -15 10
-12 6 3 10 0 10 -7 0 -10 2 -10 9 1 9 14 107 45 119 37 4 -2 43 2 87 9 78 13
139 10 130 -5 -3 -4 9 -10 26 -12 20 -3 33 0 36 9 7 17 29 17 36 -1 4 -9 21
-14 49 -14 118 0 128 -2 128 -19 1 -15 4 -14 20 6 16 18 20 20 20 6 0 -11 6
-15 18 -12 61 17 70 17 75 -3 4 -14 -1 -20 -22 -23 -23 -4 -22 -4 7 -6 l32 -1
0 79 c0 73 -2 79 -22 84 -21 5 -21 5 -5 -7z"/>
</g>
</svg>
